<svg xmlns="http://www.w3.org/2000/svg" xmlns:xlink="http://www.w3.org/1999/xlink" xmlns:lucid="lucid" width="2241" height="1181"><g transform="translate(1260.5 300.5)" lucid:page-tab-id="UEdeOZRPl.o6"><path d="M-1500-500h2500v1500h-2500z" fill="#fff"/><path d="M-740 26a6 6 0 0 1 6-6h288a6 6 0 0 1 6 6v548a6 6 0 0 1-6 6h-288a6 6 0 0 1-6-6z" stroke="#3a414a" fill="#fff"/><path d="M-450 30h-15v20h15z" stroke="#3a414a" fill="#fff"/><path d="M-460 33.33h-10v3.34h10zm0 10h-10v3.34h10z" stroke="#3a414a" fill="#fff"/><use xlink:href="#a" transform="matrix(1,0,0,1,-740,20) translate(40.36302469135803 22.787777777777777)"/><use xlink:href="#b" transform="matrix(1,0,0,1,-740,20) translate(93.32598765432098 22.787777777777777)"/><use xlink:href="#c" transform="matrix(1,0,0,1,-740,20) translate(145.1161111111111 22.787777777777777)"/><path d="M-670 401a6 6 0 0 1 6-6h148a6 6 0 0 1 6 6v108a6 6 0 0 1-6 6h-148a6 6 0 0 1-6-6z" stroke="#3a414a" fill="#fff"/><path d="M-520 405h-15v20h15z" stroke="#3a414a" fill="#fff"/><path d="M-530 408.33h-10v3.34h10zm0 10h-10v3.34h10z" stroke="#3a414a" fill="#fff"/><use xlink:href="#d" transform="matrix(1,0,0,1,-670,395.00000000000006) translate(28.060555555555553 51.52777777777778)"/><use xlink:href="#c" transform="matrix(1,0,0,1,-670,395.00000000000006) translate(36.23956790123456 78.19444444444446)"/><path d="M-590 280v11M-590 325v5" stroke="#3a414a" fill="none"/><path d="M-576 305c0 7.73-6.27 14-14 14s-14-6.27-14-14 6.27-14 14-14 14 6.27 14 14z" stroke="#3a414a" fill="#fff"/><path d="M-610 305c0 11.05 8.95 20 20 20s20-8.95 20-20" stroke="#3a414a" fill="none"/><path d="M-590 280a.8.8 0 0 1 .8.8v9.4a.8.8 0 0 1-.8.8.8.8 0 0 1-.8-.8v-9.4a.8.8 0 0 1 .8-.8z" fill="none"/><path d="M-590 394v-63.5" stroke="#3a414a" fill="none"/><path d="M-589.52 394.5h-.96v-.5h.96zM-589.52 330.5h-.96v-.5h.96z" stroke="#3a414a" stroke-width=".05" fill="#3a414a"/><path d="M-1240 401a6 6 0 0 1 6-6h148a6 6 0 0 1 6 6v108a6 6 0 0 1-6 6h-148a6 6 0 0 1-6-6z" stroke="#3a414a" fill="#fff"/><path d="M-1090 405h-15v20h15z" stroke="#3a414a" fill="#fff"/><path d="M-1100 408.33h-10v3.34h10zm0 10h-10v3.34h10z" stroke="#3a414a" fill="#fff"/><use xlink:href="#e" transform="matrix(1,0,0,1,-1240,395.00000000000006) translate(68.92475308641976 62.77777777777778)"/><path d="M-950 424.8h-11M-995 424.8h-5" stroke="#3a414a" fill="none"/><path d="M-975 438.8c-7.73 0-14-6.26-14-14 0-7.72 6.27-14 14-14s14 6.28 14 14c0 7.74-6.27 14-14 14z" stroke="#3a414a" fill="#fff"/><path d="M-975 404.8c-11.05 0-20 8.97-20 20 0 11.06 8.95 20 20 20" stroke="#3a414a" fill="none"/><path d="M-950 424.8a.8.8 0 0 1-.8.8h-9.4a.8.8 0 0 1-.8-.8.8.8 0 0 1 .8-.8h9.4a.8.8 0 0 1 .8.8z" fill="none"/><path d="M-671 425.3h-278.5v-.96H-671z" stroke="#3a414a" stroke-width=".05" fill="#3a414a"/><path d="M-949.5 425.3h-.5v-.96h.5z" fill="#3a414a"/><path d="M-949.5 425.3h-.5v-.96h.5z" stroke="#3a414a" stroke-width=".05" fill="#3a414a"/><path d="M-670.5 425.3h-.5v-.96h.5z" fill="#3a414a"/><path d="M-670.5 425.3h-.5v-.96h.5z" stroke="#3a414a" stroke-width=".05" fill="#3a414a"/><use xlink:href="#f" transform="matrix(1,0,0,1,-853.8364291531967,414.1471949348491) translate(0 14.222222222222223)"/><use xlink:href="#g" transform="matrix(1,0,0,1,-908.8257415298505,399.4805282681824) translate(0 14.222222222222223)"/><use xlink:href="#h" transform="matrix(1,0,0,1,-908.8257415298505,399.4805282681824) translate(46.41975308641976 14.222222222222223)"/><use xlink:href="#i" transform="matrix(1,0,0,1,-908.8257415298505,399.4805282681824) translate(88.83950617283952 14.222222222222223)"/><path d="M-1079 424.8h78.5" stroke="#3a414a" fill="none"/><path d="M-1079 425.3h-.5v-.96h.5zM-1000 425.3h-.5v-.96h.5z" stroke="#3a414a" stroke-width=".05" fill="#3a414a"/><path d="M-671 485.2h-278.5" stroke="#3a414a" fill="none"/><path d="M-670.5 485.66h-.5v-.95h.5zM-949.5 485.66h-.5v-.95h.5z" stroke="#3a414a" stroke-width=".05" fill="#3a414a"/><use xlink:href="#j" transform="matrix(1,0,0,1,-912.861047453039,489.18747076823945) translate(0 14.222222222222223)"/><use xlink:href="#k" transform="matrix(1,0,0,1,-912.861047453039,489.18747076823945) translate(56.24691358024692 14.222222222222223)"/><use xlink:href="#l" transform="matrix(1,0,0,1,-912.861047453039,489.18747076823945) translate(96.69135802469137 14.222222222222223)"/><path d="M220 191a6 6 0 0 1 6-6h728a6 6 0 0 1 6 6v528a6 6 0 0 1-6 6H226a6 6 0 0 1-6-6z" stroke="#3a414a" fill="#fff"/><path d="M950 195h-15v20h15z" stroke="#3a414a" fill="#fff"/><path d="M940 198.33h-10v3.34h10zm0 10h-10v3.34h10z" stroke="#3a414a" fill="#fff"/><use xlink:href="#m" transform="matrix(1,0,0,1,220,185) translate(263.44944444444445 22.787777777777777)"/><use xlink:href="#n" transform="matrix(1,0,0,1,220,185) translate(379.3753703703704 22.787777777777777)"/><path d="M300 401a6 6 0 0 1 6-6h148a6 6 0 0 1 6 6v108a6 6 0 0 1-6 6H306a6 6 0 0 1-6-6z" stroke="#3a414a" fill="#fff"/><path d="M450 405h-15v20h15z" stroke="#3a414a" fill="#fff"/><path d="M440 408.33h-10v3.34h10zm0 10h-10v3.34h10z" stroke="#3a414a" fill="#fff"/><use xlink:href="#o" transform="matrix(1,0,0,1,300,395) translate(26.363024691358007 62.77777777777778)"/><path d="M745 231a6 6 0 0 1 6-6h148a6 6 0 0 1 6 6v108a6 6 0 0 1-6 6H751a6 6 0 0 1-6-6z" stroke="#3a414a" fill="#fff"/><path d="M895 235h-15v20h15z" stroke="#3a414a" fill="#fff"/><path d="M885 238.33h-10v3.34h10zm0 10h-10v3.34h10z" stroke="#3a414a" fill="#fff"/><use xlink:href="#p" transform="matrix(1,0,0,1,745,225) translate(59.07907407407408 62.77777777777778)"/><path d="M745 571a6 6 0 0 1 6-6h148a6 6 0 0 1 6 6v108a6 6 0 0 1-6 6H751a6 6 0 0 1-6-6z" stroke="#3a414a" fill="#fff"/><path d="M895 575h-15v20h15z" stroke="#3a414a" fill="#fff"/><path d="M885 578.33h-10v3.34h10zm0 10h-10v3.34h10z" stroke="#3a414a" fill="#fff"/><use xlink:href="#q" transform="matrix(1,0,0,1,745,565) translate(25.12845679012345 62.77777777777778)"/><path d="M380 394V291a6 6 0 0 1 6-6h93.5" stroke="#3a414a" fill="none"/><path d="M380.48 394.5h-.96v-.5h.96zM480 285.48h-.5v-.96h.5z" stroke="#3a414a" stroke-width=".05" fill="#3a414a"/><path d="M744 285H530.5" stroke="#3a414a" fill="none"/><path d="M744.5 285.48h-.5v-.96h.5zM530.5 285.48h-.5v-.96h.5z" stroke="#3a414a" stroke-width=".05" fill="#3a414a"/><use xlink:href="#r" transform="matrix(1,0,0,1,556.3611361111109,289) translate(0 14.222222222222223)"/><use xlink:href="#s" transform="matrix(1,0,0,1,556.3611361111109,289) translate(89.62962962962962 14.222222222222223)"/><use xlink:href="#t" transform="matrix(1,0,0,1,556.3611361111109,289) translate(0 35.55555555555556)"/><use xlink:href="#u" transform="matrix(1,0,0,1,556.3611361111109,289) translate(44.34567901234568 35.55555555555556)"/><use xlink:href="#v" transform="matrix(1,0,0,1,556.3611361111109,289) translate(108.44444444444446 35.55555555555556)"/><path d="M380 516v103a6 6 0 0 0 6 6h93.5" stroke="#3a414a" fill="none"/><path d="M380.48 516h-.96v-.5h.96zM480 625.48h-.5v-.96h.5z" stroke="#3a414a" stroke-width=".05" fill="#3a414a"/><path d="M744 625H530.5" stroke="#3a414a" fill="none"/><path d="M744.5 625.48h-.5v-.96h.5zM530.5 625.48h-.5v-.96h.5z" stroke="#3a414a" stroke-width=".05" fill="#3a414a"/><use xlink:href="#w" transform="matrix(1,0,0,1,582.4845929012344,599.6666666666667) translate(0 14.222222222222223)"/><use xlink:href="#x" transform="matrix(1,0,0,1,582.4845929012344,599.6666666666667) translate(74.02469135802471 14.222222222222223)"/><path d="M-100-274a6 6 0 0 1 6-6H54a6 6 0 0 1 6 6v108a6 6 0 0 1-6 6H-94a6 6 0 0 1-6-6z" stroke="#3a414a" fill="#fff"/><path d="M50-270H35v20h15z" stroke="#3a414a" fill="#fff"/><path d="M40-266.67H30v3.34h10zm0 10H30v3.34h10z" stroke="#3a414a" fill="#fff"/><use xlink:href="#y" transform="matrix(1,0,0,1,-100,-280) translate(23.55438271604939 62.77777777777778)"/><use xlink:href="#z" transform="matrix(1,0,0,1,-100,-280) translate(71.14697530864197 62.77777777777778)"/><path d="M-60-85v11M-60-40v5" stroke="#3a414a" fill="none"/><path d="M-46-60c0 7.73-6.27 14-14 14s-14-6.27-14-14 6.27-14 14-14 14 6.27 14 14z" stroke="#3a414a" fill="#fff"/><path d="M-80-60c0 11.05 8.95 20 20 20s20-8.95 20-20" stroke="#3a414a" fill="none"/><path d="M-60-85a.8.8 0 0 1 .8.8v9.4a.8.8 0 0 1-.8.8.8.8 0 0 1-.8-.8v-9.4a.8.8 0 0 1 .8-.8z" fill="none"/><path d="M-60-159v73.5" stroke="#3a414a" fill="none"/><path d="M-59.52-159h-.95v-.5h.95zM-59.52-85h-.95v-.5h.95z" stroke="#3a414a" stroke-width=".05" fill="#3a414a"/><use xlink:href="#A" transform="matrix(1,0,0,1,-158.6172839506173,-132.9166781531531) translate(0 14.222222222222223)"/><use xlink:href="#B" transform="matrix(1,0,0,1,-158.6172839506173,-132.9166781531531) translate(64.98765432098766 14.222222222222223)"/><path d="M20-80v11M20-35v5" stroke="#3a414a" fill="none"/><path d="M34-55c0 7.73-6.27 14-14 14S6-47.27 6-55s6.27-14 14-14 14 6.27 14 14z" stroke="#3a414a" fill="#fff"/><path d="M0-55c0 11.05 8.95 20 20 20s20-8.95 20-20" stroke="#3a414a" fill="none"/><path d="M20-80a.8.8 0 0 1 .8.8v9.4a.8.8 0 0 1-.8.8.8.8 0 0 1-.8-.8v-9.4a.8.8 0 0 1 .8-.8z" fill="none"/><path d="M20.33-159v39.08a.17.17 0 0 1-.16.17.17.17 0 0 0-.17.17v39.08" stroke="#3a414a" fill="none"/><path d="M20.8-159h-.94v-.5h.95zM20.48-80h-.96v-.5h.96z" stroke="#3a414a" stroke-width=".05" fill="#3a414a"/><use xlink:href="#r" transform="matrix(1,0,0,1,28.245765602392204,-130.36948857958888) translate(0 14.222222222222223)"/><use xlink:href="#B" transform="matrix(1,0,0,1,28.245765602392204,-130.36948857958888) translate(89.62962962962962 14.222222222222223)"/><path d="M530 285h-11M485 285h-5" stroke="#3a414a" fill="none"/><path d="M505 299c-7.73 0-14-6.27-14-14s6.27-14 14-14 14 6.27 14 14-6.27 14-14 14z" stroke="#3a414a" fill="#fff"/><path d="M505 265c-11.05 0-20 8.95-20 20s8.95 20 20 20" stroke="#3a414a" fill="none"/><path d="M530 285a.8.8 0 0 1-.8.8h-9.4a.8.8 0 0 1-.8-.8.8.8 0 0 1 .8-.8h9.4a.8.8 0 0 1 .8.8z" fill="none"/><path d="M530 625h-11M485 625h-5" stroke="#3a414a" fill="none"/><path d="M505 639c-7.73 0-14-6.27-14-14s6.27-14 14-14 14 6.27 14 14-6.27 14-14 14z" stroke="#3a414a" fill="#fff"/><path d="M505 605c-11.05 0-20 8.95-20 20s8.95 20 20 20" stroke="#3a414a" fill="none"/><path d="M530 625a.8.8 0 0 1-.8.8h-9.4a.8.8 0 0 1-.8-.8.8.8 0 0 1 .8-.8h9.4a.8.8 0 0 1 .8.8z" fill="none"/><path d="M865.33 224V91a6 6 0 0 0-6-6H26a6 6 0 0 1-6-6V-29.5" stroke="#3a414a" fill="none"/><path d="M865.8 224.5h-.94v-.5h.95zM20.48-29.5h-.96v-.5h.96z" stroke="#3a414a" stroke-width=".05" fill="#3a414a"/><path d="M784.67 224v-78a6 6 0 0 0-6-6H-54a6 6 0 0 1-6-6V-34.5" stroke="#3a414a" fill="none"/><path d="M785.14 224.5h-.95v-.5h.94zM-59.52-34.5h-.95v-.5h.95z" stroke="#3a414a" stroke-width=".05" fill="#3a414a"/><path d="M-180 401a6 6 0 0 1 6-6h148a6 6 0 0 1 6 6v108a6 6 0 0 1-6 6h-148a6 6 0 0 1-6-6z" stroke="#3a414a" fill="#fff"/><path d="M-30 405h-15v20h15z" stroke="#3a414a" fill="#fff"/><path d="M-40 408.33h-10v3.34h10zm0 10h-10v3.34h10z" stroke="#3a414a" fill="#fff"/><use xlink:href="#C" transform="matrix(1,0,0,1,-180,395) translate(32.967962962962964 36.52777777777778)"/><use xlink:href="#D" transform="matrix(1,0,0,1,-180,395) translate(25.12845679012345 63.19444444444445)"/><use xlink:href="#E" transform="matrix(1,0,0,1,-180,395) translate(45.46796296296296 89.86111111111111)"/><path d="M140 455h11M185 455h5" stroke="#3a414a" fill="none"/><path d="M165 441c7.73 0 14 6.27 14 14s-6.27 14-14 14-14-6.27-14-14 6.27-14 14-14z" stroke="#3a414a" fill="#fff"/><path d="M165 475c11.05 0 20-8.95 20-20s-8.95-20-20-20" stroke="#3a414a" fill="none"/><path d="M140 455a.8.8 0 0 1 .8-.8h9.4a.8.8 0 0 1 .8.8.8.8 0 0 1-.8.8h-9.4a.8.8 0 0 1-.8-.8z" fill="none"/><path d="M-19 455h158.5" stroke="#3a414a" fill="none"/><path d="M-19 455.48h-.5v-.96h.5zM140 455.48h-.5v-.96h.5z" stroke="#3a414a" stroke-width=".05" fill="#3a414a"/><g><use xlink:href="#F" transform="matrix(1,0,0,1,12.941333024691474,408.33333333333337) translate(0 14.222222222222223)"/><use xlink:href="#G" transform="matrix(1,0,0,1,12.941333024691474,408.33333333333337) translate(59.11111111111112 14.222222222222223)"/><use xlink:href="#H" transform="matrix(1,0,0,1,12.941333024691474,408.33333333333337) translate(0 35.55555555555556)"/><use xlink:href="#I" transform="matrix(1,0,0,1,12.941333024691474,408.33333333333337) translate(21.62962962962963 35.55555555555556)"/></g><path d="M299 455H190.5" stroke="#3a414a" fill="none"/><path d="M299.5 455.48h-.5v-.96h.5zM190.5 455.48h-.5v-.96h.5z" stroke="#3a414a" stroke-width=".05" fill="#3a414a"/><path d="M-670 746a6 6 0 0 1 6-6h148a6 6 0 0 1 6 6v108a6 6 0 0 1-6 6h-148a6 6 0 0 1-6-6z" stroke="#3a414a" fill="#fff"/><path d="M-520 750h-15v20h15z" stroke="#3a414a" fill="#fff"/><path d="M-530 753.33h-10v3.34h10zm0 10h-10v3.34h10z" stroke="#3a414a" fill="#fff"/><g><use xlink:href="#J" transform="matrix(1,0,0,1,-670,740) translate(20.004999999999995 51.52777777777778)"/><use xlink:href="#K" transform="matrix(1,0,0,1,-670,740) translate(15.251913580246915 78.19444444444446)"/></g><path d="M-670 86a6 6 0 0 1 6-6h148a6 6 0 0 1 6 6v108a6 6 0 0 1-6 6h-148a6 6 0 0 1-6-6z" stroke="#3a414a" fill="#fff"/><path d="M-520 90h-15v20h15z" stroke="#3a414a" fill="#fff"/><path d="M-530 93.33h-10v3.34h10zm0 10h-10v3.34h10z" stroke="#3a414a" fill="#fff"/><g><use xlink:href="#L" transform="matrix(1,0,0,1,-670,80) translate(15.344506172839496 62.77777777777778)"/><use xlink:href="#c" transform="matrix(1,0,0,1,-670,80) translate(57.134629629629615 62.77777777777778)"/></g><path d="M-509 140h443a6 6 0 0 0 6-6V-34.5" stroke="#3a414a" fill="none"/><path d="M-509 140.47h-.5v-.94h.5zM-59.52-34.5h-.95v-.5h.95zM-589.52 279.5h-.96v-28.58h.96zm0-49.92h-.96V201h.96z" stroke="#3a414a" stroke-width=".05" fill="#3a414a"/><path d="M-589.52 201h-.96v-.5h.96z" fill="#3a414a"/><path stroke="#3a414a" stroke-width=".05" fill="#3a414a"/><path d="M-589.52 280h-.96v-.5h.96z" fill="#3a414a"/><path stroke="#3a414a" stroke-width=".05" fill="#3a414a"/><g><use xlink:href="#A" transform="matrix(1,0,0,1,-675.2592592592592,229.5833083333334) translate(0 14.222222222222223)"/><use xlink:href="#M" transform="matrix(1,0,0,1,-675.2592592592592,229.5833083333334) translate(64.98765432098766 14.222222222222223)"/><use xlink:href="#N" transform="matrix(1,0,0,1,-675.2592592592592,229.5833083333334) translate(95.55555555555557 14.222222222222223)"/><use xlink:href="#v" transform="matrix(1,0,0,1,-675.2592592592592,229.5833083333334) translate(117.1851851851852 14.222222222222223)"/></g><g><path d="M-320 455h-11M-365 455h-5" stroke="#3a414a" fill="none"/><path d="M-345 469c-7.73 0-14-6.27-14-14s6.27-14 14-14 14 6.27 14 14-6.27 14-14 14z" stroke="#3a414a" fill="#fff"/><path d="M-345 435c-11.05 0-20 8.95-20 20s8.95 20 20 20" stroke="#3a414a" fill="none"/><path d="M-320 455a.8.8 0 0 1-.8.8h-9.4a.8.8 0 0 1-.8-.8.8.8 0 0 1 .8-.8h9.4a.8.8 0 0 1 .8.8z" fill="none"/></g><path d="M-181 455h-138.5" stroke="#3a414a" fill="none"/><path d="M-180.5 455.48h-.5v-.96h.5zM-319.5 455.48h-.5v-.96h.5z" stroke="#3a414a" stroke-width=".05" fill="#3a414a"/><g><use xlink:href="#O" transform="matrix(1,0,0,1,-297.5586169753088,408.33333333333337) translate(0 14.222222222222223)"/><use xlink:href="#G" transform="matrix(1,0,0,1,-297.5586169753088,408.33333333333337) translate(59.111111111111114 14.222222222222223)"/><use xlink:href="#H" transform="matrix(1,0,0,1,-297.5586169753088,408.33333333333337) translate(0 35.55555555555556)"/><use xlink:href="#I" transform="matrix(1,0,0,1,-297.5586169753088,408.33333333333337) translate(21.62962962962963 35.55555555555556)"/></g><path d="M-509 455h138.5" stroke="#3a414a" fill="none"/><path d="M-509 455.48h-.5v-.96h.5zM-370 455.48h-.5v-.96h.5z" stroke="#3a414a" stroke-width=".05" fill="#3a414a"/><g><path d="M-950 485.2h-11M-995 485.2h-5" stroke="#3a414a" fill="none"/><path d="M-975 499.2c-7.73 0-14-6.28-14-14 0-7.74 6.27-14 14-14s14 6.26 14 14c0 7.72-6.27 14-14 14z" stroke="#3a414a" fill="#fff"/><path d="M-975 465.2c-11.05 0-20 8.94-20 20 0 11.03 8.95 20 20 20" stroke="#3a414a" fill="none"/><path d="M-950 485.2a.8.8 0 0 1-.8.8h-9.4a.8.8 0 0 1-.8-.8.8.8 0 0 1 .8-.8h9.4a.8.8 0 0 1 .8.8z" fill="none"/></g><path d="M-1079 485.2h78.5" stroke="#3a414a" fill="none"/><path d="M-1079 485.66h-.5v-.95h.5zM-1000 485.66h-.5v-.95h.5z" stroke="#3a414a" stroke-width=".05" fill="#3a414a"/><g><path d="M-590 670v-11M-590 625v-5" stroke="#3a414a" fill="none"/><path d="M-604 645c0-7.73 6.27-14 14-14s14 6.27 14 14-6.27 14-14 14-14-6.27-14-14z" stroke="#3a414a" fill="#fff"/><path d="M-570 645c0-11.05-8.95-20-20-20s-20 8.95-20 20" stroke="#3a414a" fill="none"/><path d="M-590 670a.8.8 0 0 1-.8-.8v-9.4a.8.8 0 0 1 .8-.8.8.8 0 0 1 .8.8v9.4a.8.8 0 0 1-.8.8z" fill="none"/></g><path d="M-590 739v-68.5" stroke="#3a414a" fill="none"/><path d="M-589.52 739.5h-.96v-.5h.96zM-589.52 670.5h-.96v-.5h.96z" stroke="#3a414a" stroke-width=".05" fill="#3a414a"/><g><use xlink:href="#g" transform="matrix(1,0,0,1,-581.9999999999999,683.4166916666666) translate(0 14.222222222222223)"/><use xlink:href="#G" transform="matrix(1,0,0,1,-581.9999999999999,683.4166916666666) translate(46.41975308641976 14.222222222222223)"/><use xlink:href="#P" transform="matrix(1,0,0,1,-581.9999999999999,683.4166916666666) translate(0 35.55555555555556)"/></g><path d="M-590 516v103.5" stroke="#3a414a" fill="none"/><path d="M-589.52 516h-.96v-.5h.96zM-589.52 620h-.96v-.5h.96z" stroke="#3a414a" stroke-width=".05" fill="#3a414a"/><defs><path fill="#3a414a" d="M232-93c-1 65-40 97-104 97C67 4 28-28 28-90v-158h33c8 89-33 224 67 224 102 0 64-133 71-224h33v155" id="Q"/><path fill="#3a414a" d="M135-143c-3-34-86-38-87 0 15 53 115 12 119 90S17 21 10-45l28-5c4 36 97 45 98 0-10-56-113-15-118-90-4-57 82-63 122-42 12 7 21 19 24 35" id="R"/><path fill="#3a414a" d="M100-194c63 0 86 42 84 106H49c0 40 14 67 53 68 26 1 43-12 49-29l28 8c-11 28-37 45-77 45C44 4 14-33 15-96c1-61 26-98 85-98zm52 81c6-60-76-77-97-28-3 7-6 17-6 28h103" id="S"/><path fill="#3a414a" d="M114-163C36-179 61-72 57 0H25l-1-190h30c1 12-1 29 2 39 6-27 23-49 58-41v29" id="T"/><g id="a"><use transform="matrix(0.06172839506172839,0,0,0.06172839506172839,0,0)" xlink:href="#Q"/><use transform="matrix(0.06172839506172839,0,0,0.06172839506172839,15.987654320987653,0)" xlink:href="#R"/><use transform="matrix(0.06172839506172839,0,0,0.06172839506172839,27.098765432098766,0)" xlink:href="#S"/><use transform="matrix(0.06172839506172839,0,0,0.06172839506172839,39.44444444444444,0)" xlink:href="#T"/></g><path fill="#3a414a" d="M127-220V0H93v-220H8v-28h204v28h-85" id="U"/><path fill="#3a414a" d="M141-36C126-15 110 5 73 4 37 3 15-17 15-53c-1-64 63-63 125-63 3-35-9-54-41-54-24 1-41 7-42 31l-33-3c5-37 33-52 76-52 45 0 72 20 72 64v82c-1 20 7 32 28 27v20c-31 9-61-2-59-35zM48-53c0 20 12 33 32 33 41-3 63-29 60-74-43 2-92-5-92 41" id="V"/><path fill="#3a414a" d="M143 0L79-87 56-68V0H24v-261h32v163l83-92h37l-77 82L181 0h-38" id="W"/><g id="b"><use transform="matrix(0.06172839506172839,0,0,0.06172839506172839,0,0)" xlink:href="#U"/><use transform="matrix(0.06172839506172839,0,0,0.06172839506172839,11.049382716049381,0)" xlink:href="#V"/><use transform="matrix(0.06172839506172839,0,0,0.06172839506172839,23.39506172839506,0)" xlink:href="#R"/><use transform="matrix(0.06172839506172839,0,0,0.06172839506172839,34.50617283950617,0)" xlink:href="#W"/></g><path fill="#3a414a" d="M240 0l2-218c-23 76-54 145-80 218h-23L58-218 59 0H30v-248h44l77 211c21-75 51-140 76-211h43V0h-30" id="X"/><path fill="#3a414a" d="M117-194c89-4 53 116 60 194h-32v-121c0-31-8-49-39-48C34-167 62-67 57 0H25l-1-190h30c1 10-1 24 2 32 11-22 29-35 61-36" id="Y"/><path fill="#3a414a" d="M177-190C167-65 218 103 67 71c-23-6-38-20-44-43l32-5c15 47 100 32 89-28v-30C133-14 115 1 83 1 29 1 15-40 15-95c0-56 16-97 71-98 29-1 48 16 59 35 1-10 0-23 2-32h30zM94-22c36 0 50-32 50-73 0-42-14-75-50-75-39 0-46 34-46 75s6 73 46 73" id="Z"/><g id="c"><use transform="matrix(0.06172839506172839,0,0,0.06172839506172839,0,0)" xlink:href="#X"/><use transform="matrix(0.06172839506172839,0,0,0.06172839506172839,18.456790123456788,0)" xlink:href="#V"/><use transform="matrix(0.06172839506172839,0,0,0.06172839506172839,30.80246913580247,0)" xlink:href="#Y"/><use transform="matrix(0.06172839506172839,0,0,0.06172839506172839,43.148148148148145,0)" xlink:href="#V"/><use transform="matrix(0.06172839506172839,0,0,0.06172839506172839,55.49382716049382,0)" xlink:href="#Z"/><use transform="matrix(0.06172839506172839,0,0,0.06172839506172839,67.8395061728395,0)" xlink:href="#S"/><use transform="matrix(0.06172839506172839,0,0,0.06172839506172839,80.18518518518519,0)" xlink:href="#T"/></g><path fill="#3a414a" d="M143 4C61 4 22-44 18-125c-5-107 100-154 193-111 17 8 29 25 37 43l-32 9c-13-25-37-40-76-40-61 0-88 39-88 99 0 61 29 100 91 101 35 0 62-11 79-27v-45h-74v-28h105v86C228-13 192 4 143 4" id="aa"/><path fill="#3a414a" d="M24 0v-261h32V0H24" id="ab"/><g id="d"><use transform="matrix(0.06172839506172839,0,0,0.06172839506172839,0,0)" xlink:href="#aa"/><use transform="matrix(0.06172839506172839,0,0,0.06172839506172839,17.28395061728395,0)" xlink:href="#S"/><use transform="matrix(0.06172839506172839,0,0,0.06172839506172839,29.629629629629626,0)" xlink:href="#Y"/><use transform="matrix(0.06172839506172839,0,0,0.06172839506172839,41.9753086419753,0)" xlink:href="#S"/><use transform="matrix(0.06172839506172839,0,0,0.06172839506172839,54.32098765432098,0)" xlink:href="#T"/><use transform="matrix(0.06172839506172839,0,0,0.06172839506172839,61.66666666666666,0)" xlink:href="#V"/><use transform="matrix(0.06172839506172839,0,0,0.06172839506172839,74.01234567901234,0)" xlink:href="#ab"/></g><path fill="#3a414a" d="M33 0v-248h34V0H33" id="ac"/><g id="e"><use transform="matrix(0.06172839506172839,0,0,0.06172839506172839,0,0)" xlink:href="#Q"/><use transform="matrix(0.06172839506172839,0,0,0.06172839506172839,15.987654320987653,0)" xlink:href="#ac"/></g><path fill="#333" d="M169-182c-1-43-94-46-97-3 18 66 151 10 154 114 3 95-165 93-204 36-6-8-10-19-12-30l50-8c3 46 112 56 116 5-17-69-150-10-154-114-4-87 153-88 188-35 5 8 8 18 10 28" id="ad"/><path fill="#333" d="M133-34C117-15 103 5 69 4 32 3 11-16 11-54c-1-60 55-63 116-61 1-26-3-47-28-47-18 1-26 9-28 27l-52-2c7-38 36-58 82-57s74 22 75 68l1 82c-1 14 12 18 25 15v27c-30 8-71 5-69-32zm-48 3c29 0 43-24 42-57-32 0-66-3-65 30 0 17 8 27 23 27" id="ae"/><path fill="#333" d="M128 0H69L1-190h53L99-40l48-150h52" id="af"/><path fill="#333" d="M185-48c-13 30-37 53-82 52C43 2 14-33 14-96s30-98 90-98c62 0 83 45 84 108H66c0 31 8 55 39 56 18 0 30-7 34-22zm-45-69c5-46-57-63-70-21-2 6-4 13-4 21h74" id="ag"/><g id="g"><use transform="matrix(0.04938271604938272,0,0,0.04938271604938272,0,0)" xlink:href="#ad"/><use transform="matrix(0.04938271604938272,0,0,0.04938271604938272,11.851851851851853,0)" xlink:href="#ae"/><use transform="matrix(0.04938271604938272,0,0,0.04938271604938272,21.7283950617284,0)" xlink:href="#af"/><use transform="matrix(0.04938271604938272,0,0,0.04938271604938272,31.60493827160494,0)" xlink:href="#ag"/></g><path fill="#333" d="M85 4C-2 5 27-109 22-190h50c7 57-23 150 33 157 60-5 35-97 40-157h50l1 190h-47c-2-12 1-28-3-38-12 25-28 42-61 42" id="ah"/><path fill="#333" d="M137-138c1-29-70-34-71-4 15 46 118 7 119 86 1 83-164 76-172 9l43-7c4 19 20 25 44 25 33 8 57-30 24-41C81-84 22-81 20-136c-2-80 154-74 161-7" id="ai"/><path fill="#333" d="M135-150c-39-12-60 13-60 57V0H25l-1-190h47c2 13-1 29 3 40 6-28 27-53 61-41v41" id="aj"/><g id="h"><use transform="matrix(0.04938271604938272,0,0,0.04938271604938272,0,0)" xlink:href="#ah"/><use transform="matrix(0.04938271604938272,0,0,0.04938271604938272,10.814814814814815,0)" xlink:href="#ai"/><use transform="matrix(0.04938271604938272,0,0,0.04938271604938272,20.69135802469136,0)" xlink:href="#ag"/><use transform="matrix(0.04938271604938272,0,0,0.04938271604938272,30.567901234567906,0)" xlink:href="#aj"/></g><path fill="#333" d="M115-3C79 11 28 4 28-45v-112H4v-33h27l15-45h31v45h36v33H77v99c-1 23 16 31 38 25v30" id="ak"/><path fill="#333" d="M147 0L96-86 75-71V0H25v-261h50v150l67-79h53l-66 74L201 0h-54" id="al"/><g id="i"><use transform="matrix(0.04938271604938272,0,0,0.04938271604938272,0,0)" xlink:href="#ak"/><use transform="matrix(0.04938271604938272,0,0,0.04938271604938272,5.8765432098765435,0)" xlink:href="#ae"/><use transform="matrix(0.04938271604938272,0,0,0.04938271604938272,15.753086419753087,0)" xlink:href="#ai"/><use transform="matrix(0.04938271604938272,0,0,0.04938271604938272,25.629629629629633,0)" xlink:href="#al"/></g><path fill="#333" d="M140-251c80 0 125 45 125 126 0 70-33 111-92 124 6 28 34 38 68 31l-1 36C177 83 129 55 120 2 51-6 15-50 15-125c0-81 44-126 125-126zm-1 214c52 0 73-35 73-88 0-50-21-86-72-86-52 0-73 35-73 86s22 88 72 88" id="am"/><path fill="#333" d="M123 10C108 53 80 86 19 72V37c35 8 53-11 59-39L3-190h52l48 148c12-52 28-100 44-148h51" id="an"/><g id="j"><use transform="matrix(0.04938271604938272,0,0,0.04938271604938272,0,0)" xlink:href="#am"/><use transform="matrix(0.04938271604938272,0,0,0.04938271604938272,13.827160493827162,0)" xlink:href="#ah"/><use transform="matrix(0.04938271604938272,0,0,0.04938271604938272,24.641975308641975,0)" xlink:href="#ag"/><use transform="matrix(0.04938271604938272,0,0,0.04938271604938272,34.51851851851852,0)" xlink:href="#aj"/><use transform="matrix(0.04938271604938272,0,0,0.04938271604938272,41.4320987654321,0)" xlink:href="#an"/></g><g id="k"><use transform="matrix(0.04938271604938272,0,0,0.04938271604938272,0,0)" xlink:href="#ak"/><use transform="matrix(0.04938271604938272,0,0,0.04938271604938272,5.8765432098765435,0)" xlink:href="#ae"/><use transform="matrix(0.04938271604938272,0,0,0.04938271604938272,15.753086419753087,0)" xlink:href="#ai"/><use transform="matrix(0.04938271604938272,0,0,0.04938271604938272,25.629629629629633,0)" xlink:href="#al"/></g><g id="l"><use transform="matrix(0.04938271604938272,0,0,0.04938271604938272,0,0)" xlink:href="#ai"/><use transform="matrix(0.04938271604938272,0,0,0.04938271604938272,9.876543209876544,0)" xlink:href="#ak"/><use transform="matrix(0.04938271604938272,0,0,0.04938271604938272,15.753086419753087,0)" xlink:href="#ae"/><use transform="matrix(0.04938271604938272,0,0,0.04938271604938272,25.629629629629633,0)" xlink:href="#ak"/><use transform="matrix(0.04938271604938272,0,0,0.04938271604938272,31.506172839506174,0)" xlink:href="#ag"/></g><path fill="#3a414a" d="M30-248c87 1 191-15 191 75 0 78-77 80-158 76V0H30v-248zm33 125c57 0 124 11 124-50 0-59-68-47-124-48v98" id="ao"/><path fill="#3a414a" d="M100-194c62-1 85 37 85 99 1 63-27 99-86 99S16-35 15-95c0-66 28-99 85-99zM99-20c44 1 53-31 53-75 0-43-8-75-51-75s-53 32-53 75 10 74 51 75" id="ap"/><path fill="#3a414a" d="M96-169c-40 0-48 33-48 73s9 75 48 75c24 0 41-14 43-38l32 2c-6 37-31 61-74 61-59 0-76-41-82-99-10-93 101-131 147-64 4 7 5 14 7 22l-32 3c-4-21-16-35-41-35" id="aq"/><path fill="#3a414a" d="M24-231v-30h32v30H24zM24 0v-190h32V0H24" id="ar"/><g id="m"><use transform="matrix(0.06172839506172839,0,0,0.06172839506172839,0,0)" xlink:href="#ao"/><use transform="matrix(0.06172839506172839,0,0,0.06172839506172839,14.814814814814813,0)" xlink:href="#T"/><use transform="matrix(0.06172839506172839,0,0,0.06172839506172839,22.160493827160494,0)" xlink:href="#ap"/><use transform="matrix(0.06172839506172839,0,0,0.06172839506172839,34.50617283950617,0)" xlink:href="#aq"/><use transform="matrix(0.06172839506172839,0,0,0.06172839506172839,45.61728395061728,0)" xlink:href="#S"/><use transform="matrix(0.06172839506172839,0,0,0.06172839506172839,57.962962962962955,0)" xlink:href="#R"/><use transform="matrix(0.06172839506172839,0,0,0.06172839506172839,69.07407407407406,0)" xlink:href="#R"/><use transform="matrix(0.06172839506172839,0,0,0.06172839506172839,80.18518518518518,0)" xlink:href="#ar"/><use transform="matrix(0.06172839506172839,0,0,0.06172839506172839,85.06172839506172,0)" xlink:href="#Y"/><use transform="matrix(0.06172839506172839,0,0,0.06172839506172839,97.4074074074074,0)" xlink:href="#Z"/></g><path fill="#3a414a" d="M212-179c-10-28-35-45-73-45-59 0-87 40-87 99 0 60 29 101 89 101 43 0 62-24 78-52l27 14C228-24 195 4 139 4 59 4 22-46 18-125c-6-104 99-153 187-111 19 9 31 26 39 46" id="as"/><path fill="#3a414a" d="M84 4C-5 8 30-112 23-190h32v120c0 31 7 50 39 49 72-2 45-101 50-169h31l1 190h-30c-1-10 1-25-2-33-11 22-28 36-60 37" id="at"/><path fill="#3a414a" d="M59-47c-2 24 18 29 38 22v24C64 9 27 4 27-40v-127H5v-23h24l9-43h21v43h35v23H59v120" id="au"/><g id="n"><use transform="matrix(0.06172839506172839,0,0,0.06172839506172839,0,0)" xlink:href="#as"/><use transform="matrix(0.06172839506172839,0,0,0.06172839506172839,15.987654320987653,0)" xlink:href="#ab"/><use transform="matrix(0.06172839506172839,0,0,0.06172839506172839,20.864197530864196,0)" xlink:href="#at"/><use transform="matrix(0.06172839506172839,0,0,0.06172839506172839,33.20987654320987,0)" xlink:href="#R"/><use transform="matrix(0.06172839506172839,0,0,0.06172839506172839,44.32098765432099,0)" xlink:href="#au"/><use transform="matrix(0.06172839506172839,0,0,0.06172839506172839,50.49382716049383,0)" xlink:href="#S"/><use transform="matrix(0.06172839506172839,0,0,0.06172839506172839,62.839506172839506,0)" xlink:href="#T"/></g><g id="o"><use transform="matrix(0.06172839506172839,0,0,0.06172839506172839,0,0)" xlink:href="#X"/><use transform="matrix(0.06172839506172839,0,0,0.06172839506172839,18.456790123456788,0)" xlink:href="#S"/><use transform="matrix(0.06172839506172839,0,0,0.06172839506172839,30.80246913580247,0)" xlink:href="#R"/><use transform="matrix(0.06172839506172839,0,0,0.06172839506172839,41.91358024691358,0)" xlink:href="#R"/><use transform="matrix(0.06172839506172839,0,0,0.06172839506172839,53.0246913580247,0)" xlink:href="#V"/><use transform="matrix(0.06172839506172839,0,0,0.06172839506172839,65.37037037037038,0)" xlink:href="#Z"/><use transform="matrix(0.06172839506172839,0,0,0.06172839506172839,77.71604938271606,0)" xlink:href="#ar"/><use transform="matrix(0.06172839506172839,0,0,0.06172839506172839,82.59259259259261,0)" xlink:href="#Y"/><use transform="matrix(0.06172839506172839,0,0,0.06172839506172839,94.9382716049383,0)" xlink:href="#Z"/></g><path fill="#3a414a" d="M63-220v92h138v28H63V0H30v-248h175v28H63" id="av"/><g id="p"><use transform="matrix(0.06172839506172839,0,0,0.06172839506172839,0,0)" xlink:href="#av"/><use transform="matrix(0.06172839506172839,0,0,0.06172839506172839,13.518518518518517,0)" xlink:href="#U"/><use transform="matrix(0.06172839506172839,0,0,0.06172839506172839,27.037037037037035,0)" xlink:href="#ao"/></g><g id="q"><use transform="matrix(0.06172839506172839,0,0,0.06172839506172839,0,0)" xlink:href="#ao"/><use transform="matrix(0.06172839506172839,0,0,0.06172839506172839,14.814814814814813,0)" xlink:href="#T"/><use transform="matrix(0.06172839506172839,0,0,0.06172839506172839,22.160493827160494,0)" xlink:href="#ap"/><use transform="matrix(0.06172839506172839,0,0,0.06172839506172839,34.50617283950617,0)" xlink:href="#aq"/><use transform="matrix(0.06172839506172839,0,0,0.06172839506172839,45.61728395061728,0)" xlink:href="#S"/><use transform="matrix(0.06172839506172839,0,0,0.06172839506172839,57.962962962962955,0)" xlink:href="#R"/><use transform="matrix(0.06172839506172839,0,0,0.06172839506172839,69.07407407407406,0)" xlink:href="#R"/><use transform="matrix(0.06172839506172839,0,0,0.06172839506172839,80.18518518518518,0)" xlink:href="#ar"/><use transform="matrix(0.06172839506172839,0,0,0.06172839506172839,85.06172839506172,0)" xlink:href="#Y"/><use transform="matrix(0.06172839506172839,0,0,0.06172839506172839,97.4074074074074,0)" xlink:href="#Z"/></g><path fill="#333" d="M24-248c120-7 223 5 221 122C244-46 201 0 124 0H24v-248zM76-40c74 7 117-18 117-86 0-67-45-88-117-82v168" id="aw"/><path fill="#333" d="M110-194c64 0 96 36 96 99 0 64-35 99-97 99-61 0-95-36-95-99 0-62 34-99 96-99zm-1 164c35 0 45-28 45-65 0-40-10-65-43-65-34 0-45 26-45 65 0 36 10 65 43 65" id="ax"/><path fill="#333" d="M231 0h-52l-39-155L100 0H48L-1-190h46L77-45c9-52 24-97 36-145h53l37 145 32-145h46" id="ay"/><path fill="#333" d="M135-194c87-1 58 113 63 194h-50c-7-57 23-157-34-157-59 0-34 97-39 157H25l-1-190h47c2 12-1 28 3 38 12-26 28-41 61-42" id="az"/><path fill="#333" d="M25 0v-261h50V0H25" id="aA"/><path fill="#333" d="M88-194c31-1 46 15 58 34l-1-101h50l1 261h-48c-2-10 0-23-3-31C134-8 116 4 84 4 32 4 16-41 15-95c0-56 19-97 73-99zm17 164c33 0 40-30 41-66 1-37-9-64-41-64s-38 30-39 65c0 43 13 65 39 65" id="aB"/><g id="r"><use transform="matrix(0.04938271604938272,0,0,0.04938271604938272,0,0)" xlink:href="#aw"/><use transform="matrix(0.04938271604938272,0,0,0.04938271604938272,12.790123456790125,0)" xlink:href="#ax"/><use transform="matrix(0.04938271604938272,0,0,0.04938271604938272,23.60493827160494,0)" xlink:href="#ay"/><use transform="matrix(0.04938271604938272,0,0,0.04938271604938272,37.4320987654321,0)" xlink:href="#az"/><use transform="matrix(0.04938271604938272,0,0,0.04938271604938272,48.24691358024692,0)" xlink:href="#aA"/><use transform="matrix(0.04938271604938272,0,0,0.04938271604938272,53.18518518518519,0)" xlink:href="#ax"/><use transform="matrix(0.04938271604938272,0,0,0.04938271604938272,64,0)" xlink:href="#ae"/><use transform="matrix(0.04938271604938272,0,0,0.04938271604938272,73.87654320987654,0)" xlink:href="#aB"/></g><path fill="#333" d="M121-226c-27-7-43 5-38 36h38v33H83V0H34v-157H6v-33h28c-9-59 32-81 87-68v32" id="aC"/><path fill="#333" d="M25-224v-37h50v37H25zM25 0v-190h50V0H25" id="aD"/><g id="s"><use transform="matrix(0.04938271604938272,0,0,0.04938271604938272,0,0)" xlink:href="#aC"/><use transform="matrix(0.04938271604938272,0,0,0.04938271604938272,5.8765432098765435,0)" xlink:href="#aD"/><use transform="matrix(0.04938271604938272,0,0,0.04938271604938272,10.814814814814817,0)" xlink:href="#aA"/><use transform="matrix(0.04938271604938272,0,0,0.04938271604938272,15.753086419753087,0)" xlink:href="#ag"/><use transform="matrix(0.04938271604938272,0,0,0.04938271604938272,25.629629629629633,0)" xlink:href="#ai"/></g><path fill="#333" d="M220-157c-53 9-28 100-34 157h-49v-107c1-27-5-49-29-50C55-147 81-57 75 0H25l-1-190h47c2 12-1 28 3 38 10-53 101-56 108 0 13-22 24-43 59-42 82 1 51 116 57 194h-49v-107c-1-25-5-48-29-50" id="aE"/><g id="t"><use transform="matrix(0.04938271604938272,0,0,0.04938271604938272,0,0)" xlink:href="#aC"/><use transform="matrix(0.04938271604938272,0,0,0.04938271604938272,5.8765432098765435,0)" xlink:href="#aj"/><use transform="matrix(0.04938271604938272,0,0,0.04938271604938272,12.790123456790125,0)" xlink:href="#ax"/><use transform="matrix(0.04938271604938272,0,0,0.04938271604938272,23.604938271604937,0)" xlink:href="#aE"/></g><g id="u"><use transform="matrix(0.04938271604938272,0,0,0.04938271604938272,0,0)" xlink:href="#aj"/><use transform="matrix(0.04938271604938272,0,0,0.04938271604938272,6.913580246913581,0)" xlink:href="#ag"/><use transform="matrix(0.04938271604938272,0,0,0.04938271604938272,16.790123456790127,0)" xlink:href="#aE"/><use transform="matrix(0.04938271604938272,0,0,0.04938271604938272,32.592592592592595,0)" xlink:href="#ax"/><use transform="matrix(0.04938271604938272,0,0,0.04938271604938272,43.40740740740741,0)" xlink:href="#ak"/><use transform="matrix(0.04938271604938272,0,0,0.04938271604938272,49.283950617283956,0)" xlink:href="#ag"/></g><g id="v"><use transform="matrix(0.04938271604938272,0,0,0.04938271604938272,0,0)" xlink:href="#ai"/><use transform="matrix(0.04938271604938272,0,0,0.04938271604938272,9.876543209876544,0)" xlink:href="#ag"/><use transform="matrix(0.04938271604938272,0,0,0.04938271604938272,19.75308641975309,0)" xlink:href="#aj"/><use transform="matrix(0.04938271604938272,0,0,0.04938271604938272,26.666666666666668,0)" xlink:href="#af"/><use transform="matrix(0.04938271604938272,0,0,0.04938271604938272,36.543209876543216,0)" xlink:href="#ag"/><use transform="matrix(0.04938271604938272,0,0,0.04938271604938272,46.41975308641976,0)" xlink:href="#aj"/></g><path fill="#333" d="M24-248c93 1 206-16 204 79-1 75-69 88-152 82V0H24v-248zm52 121c47 0 100 7 100-41 0-47-54-39-100-39v80" id="aF"/><path fill="#333" d="M190-63c-7 42-38 67-86 67-59 0-84-38-90-98-12-110 154-137 174-36l-49 2c-2-19-15-32-35-32-30 0-35 28-38 64-6 74 65 87 74 30" id="aG"/><g id="w"><use transform="matrix(0.04938271604938272,0,0,0.04938271604938272,0,0)" xlink:href="#aF"/><use transform="matrix(0.04938271604938272,0,0,0.04938271604938272,11.851851851851853,0)" xlink:href="#aj"/><use transform="matrix(0.04938271604938272,0,0,0.04938271604938272,18.765432098765434,0)" xlink:href="#ax"/><use transform="matrix(0.04938271604938272,0,0,0.04938271604938272,29.58024691358025,0)" xlink:href="#aG"/><use transform="matrix(0.04938271604938272,0,0,0.04938271604938272,39.45679012345679,0)" xlink:href="#ag"/><use transform="matrix(0.04938271604938272,0,0,0.04938271604938272,49.333333333333336,0)" xlink:href="#ai"/><use transform="matrix(0.04938271604938272,0,0,0.04938271604938272,59.20987654320988,0)" xlink:href="#ai"/></g><g id="x"><use transform="matrix(0.04938271604938272,0,0,0.04938271604938272,0,0)" xlink:href="#aC"/><use transform="matrix(0.04938271604938272,0,0,0.04938271604938272,5.8765432098765435,0)" xlink:href="#aD"/><use transform="matrix(0.04938271604938272,0,0,0.04938271604938272,10.814814814814817,0)" xlink:href="#aA"/><use transform="matrix(0.04938271604938272,0,0,0.04938271604938272,15.753086419753087,0)" xlink:href="#ag"/><use transform="matrix(0.04938271604938272,0,0,0.04938271604938272,25.629629629629633,0)" xlink:href="#ai"/></g><g id="y"><use transform="matrix(0.06172839506172839,0,0,0.06172839506172839,0,0)" xlink:href="#av"/><use transform="matrix(0.06172839506172839,0,0,0.06172839506172839,13.518518518518517,0)" xlink:href="#U"/><use transform="matrix(0.06172839506172839,0,0,0.06172839506172839,27.037037037037035,0)" xlink:href="#ao"/></g><path fill="#3a414a" d="M185-189c-5-48-123-54-124 2 14 75 158 14 163 119 3 78-121 87-175 55-17-10-28-26-33-46l33-7c5 56 141 63 141-1 0-78-155-14-162-118-5-82 145-84 179-34 5 7 8 16 11 25" id="aH"/><path fill="#3a414a" d="M108 0H70L1-190h34L89-25l56-165h34" id="aI"/><g id="z"><use transform="matrix(0.06172839506172839,0,0,0.06172839506172839,0,0)" xlink:href="#aH"/><use transform="matrix(0.06172839506172839,0,0,0.06172839506172839,14.814814814814813,0)" xlink:href="#S"/><use transform="matrix(0.06172839506172839,0,0,0.06172839506172839,27.160493827160494,0)" xlink:href="#T"/><use transform="matrix(0.06172839506172839,0,0,0.06172839506172839,34.50617283950617,0)" xlink:href="#aI"/><use transform="matrix(0.06172839506172839,0,0,0.06172839506172839,45.61728395061728,0)" xlink:href="#S"/><use transform="matrix(0.06172839506172839,0,0,0.06172839506172839,57.962962962962955,0)" xlink:href="#T"/></g><path fill="#333" d="M238-95c0 69-44 99-111 99C63 4 22-25 22-93v-155h51v151c-1 38 19 59 55 60 90 1 49-130 58-211h52v153" id="aJ"/><path fill="#333" d="M135-194c53 0 70 44 70 98 0 56-19 98-73 100-31 1-45-17-59-34 3 33 2 69 2 105H25l-1-265h48c2 10 0 23 3 31 11-24 29-35 60-35zM114-30c33 0 39-31 40-66 0-38-9-64-40-64-56 0-55 130 0 130" id="aK"/><g id="A"><use transform="matrix(0.04938271604938272,0,0,0.04938271604938272,0,0)" xlink:href="#aJ"/><use transform="matrix(0.04938271604938272,0,0,0.04938271604938272,12.790123456790125,0)" xlink:href="#aK"/><use transform="matrix(0.04938271604938272,0,0,0.04938271604938272,23.60493827160494,0)" xlink:href="#aA"/><use transform="matrix(0.04938271604938272,0,0,0.04938271604938272,28.543209876543212,0)" xlink:href="#ax"/><use transform="matrix(0.04938271604938272,0,0,0.04938271604938272,39.358024691358025,0)" xlink:href="#ae"/><use transform="matrix(0.04938271604938272,0,0,0.04938271604938272,49.23456790123457,0)" xlink:href="#aB"/></g><g id="B"><use transform="matrix(0.04938271604938272,0,0,0.04938271604938272,0,0)" xlink:href="#aC"/><use transform="matrix(0.04938271604938272,0,0,0.04938271604938272,5.8765432098765435,0)" xlink:href="#aD"/><use transform="matrix(0.04938271604938272,0,0,0.04938271604938272,10.814814814814817,0)" xlink:href="#aA"/><use transform="matrix(0.04938271604938272,0,0,0.04938271604938272,15.753086419753087,0)" xlink:href="#ag"/></g><path fill="#3a414a" d="M115-194c53 0 69 39 70 98 0 66-23 100-70 100C84 3 66-7 56-30L54 0H23l1-261h32v101c10-23 28-34 59-34zm-8 174c40 0 45-34 45-75 0-40-5-75-45-74-42 0-51 32-51 76 0 43 10 73 51 73" id="aL"/><g id="C"><use transform="matrix(0.06172839506172839,0,0,0.06172839506172839,0,0)" xlink:href="#aa"/><use transform="matrix(0.06172839506172839,0,0,0.06172839506172839,17.28395061728395,0)" xlink:href="#ab"/><use transform="matrix(0.06172839506172839,0,0,0.06172839506172839,22.160493827160494,0)" xlink:href="#ap"/><use transform="matrix(0.06172839506172839,0,0,0.06172839506172839,34.50617283950617,0)" xlink:href="#aL"/><use transform="matrix(0.06172839506172839,0,0,0.06172839506172839,46.85185185185185,0)" xlink:href="#V"/><use transform="matrix(0.06172839506172839,0,0,0.06172839506172839,59.197530864197525,0)" xlink:href="#ab"/></g><g id="D"><use transform="matrix(0.06172839506172839,0,0,0.06172839506172839,0,0)" xlink:href="#ao"/><use transform="matrix(0.06172839506172839,0,0,0.06172839506172839,14.814814814814813,0)" xlink:href="#T"/><use transform="matrix(0.06172839506172839,0,0,0.06172839506172839,22.160493827160494,0)" xlink:href="#ap"/><use transform="matrix(0.06172839506172839,0,0,0.06172839506172839,34.50617283950617,0)" xlink:href="#aq"/><use transform="matrix(0.06172839506172839,0,0,0.06172839506172839,45.61728395061728,0)" xlink:href="#S"/><use transform="matrix(0.06172839506172839,0,0,0.06172839506172839,57.962962962962955,0)" xlink:href="#R"/><use transform="matrix(0.06172839506172839,0,0,0.06172839506172839,69.07407407407406,0)" xlink:href="#R"/><use transform="matrix(0.06172839506172839,0,0,0.06172839506172839,80.18518518518518,0)" xlink:href="#ar"/><use transform="matrix(0.06172839506172839,0,0,0.06172839506172839,85.06172839506172,0)" xlink:href="#Y"/><use transform="matrix(0.06172839506172839,0,0,0.06172839506172839,97.4074074074074,0)" xlink:href="#Z"/></g><path fill="#3a414a" d="M30 0v-248h187v28H63v79h144v27H63v87h162V0H30" id="aM"/><g id="E"><use transform="matrix(0.06172839506172839,0,0,0.06172839506172839,0,0)" xlink:href="#aM"/><use transform="matrix(0.06172839506172839,0,0,0.06172839506172839,14.814814814814813,0)" xlink:href="#Y"/><use transform="matrix(0.06172839506172839,0,0,0.06172839506172839,27.160493827160494,0)" xlink:href="#Z"/><use transform="matrix(0.06172839506172839,0,0,0.06172839506172839,39.50617283950617,0)" xlink:href="#ar"/><use transform="matrix(0.06172839506172839,0,0,0.06172839506172839,44.382716049382715,0)" xlink:href="#Y"/><use transform="matrix(0.06172839506172839,0,0,0.06172839506172839,56.72839506172839,0)" xlink:href="#S"/></g><path fill="#333" d="M84 4C32 4 15-41 15-95c0-55 18-99 73-99 29 0 47 12 58 34l2-30h48l-1 265h-49V-32C136-9 114 4 84 4zm21-34c32 0 41-29 41-66 0-36-9-64-40-64-33 0-39 30-40 65 0 43 13 65 39 65" id="aN"/><g id="F"><use transform="matrix(0.04938271604938272,0,0,0.04938271604938272,0,0)" xlink:href="#aw"/><use transform="matrix(0.04938271604938272,0,0,0.04938271604938272,12.790123456790125,0)" xlink:href="#ag"/><use transform="matrix(0.04938271604938272,0,0,0.04938271604938272,22.66666666666667,0)" xlink:href="#aN"/><use transform="matrix(0.04938271604938272,0,0,0.04938271604938272,33.48148148148149,0)" xlink:href="#ah"/><use transform="matrix(0.04938271604938272,0,0,0.04938271604938272,44.296296296296305,0)" xlink:href="#ag"/></g><g id="G"><use transform="matrix(0.04938271604938272,0,0,0.04938271604938272,0,0)" xlink:href="#ak"/><use transform="matrix(0.04938271604938272,0,0,0.04938271604938272,5.8765432098765435,0)" xlink:href="#ae"/><use transform="matrix(0.04938271604938272,0,0,0.04938271604938272,15.753086419753087,0)" xlink:href="#ai"/><use transform="matrix(0.04938271604938272,0,0,0.04938271604938272,25.629629629629633,0)" xlink:href="#al"/></g><g id="H"><use transform="matrix(0.04938271604938272,0,0,0.04938271604938272,0,0)" xlink:href="#ak"/><use transform="matrix(0.04938271604938272,0,0,0.04938271604938272,5.8765432098765435,0)" xlink:href="#ax"/></g><g id="I"><use transform="matrix(0.04938271604938272,0,0,0.04938271604938272,0,0)" xlink:href="#aK"/><use transform="matrix(0.04938271604938272,0,0,0.04938271604938272,10.814814814814815,0)" xlink:href="#aj"/><use transform="matrix(0.04938271604938272,0,0,0.04938271604938272,17.728395061728396,0)" xlink:href="#ax"/><use transform="matrix(0.04938271604938272,0,0,0.04938271604938272,28.543209876543205,0)" xlink:href="#aG"/><use transform="matrix(0.04938271604938272,0,0,0.04938271604938272,38.41975308641975,0)" xlink:href="#ag"/><use transform="matrix(0.04938271604938272,0,0,0.04938271604938272,48.2962962962963,0)" xlink:href="#ai"/><use transform="matrix(0.04938271604938272,0,0,0.04938271604938272,58.17283950617284,0)" xlink:href="#ai"/></g><path fill="#3a414a" d="M30-248c118-7 216 8 213 122C240-48 200 0 122 0H30v-248zM63-27c89 8 146-16 146-99s-60-101-146-95v194" id="aO"/><g id="J"><use transform="matrix(0.06172839506172839,0,0,0.06172839506172839,0,0)" xlink:href="#aO"/><use transform="matrix(0.06172839506172839,0,0,0.06172839506172839,15.987654320987653,0)" xlink:href="#V"/><use transform="matrix(0.06172839506172839,0,0,0.06172839506172839,28.333333333333332,0)" xlink:href="#au"/><use transform="matrix(0.06172839506172839,0,0,0.06172839506172839,34.50617283950617,0)" xlink:href="#V"/><use transform="matrix(0.06172839506172839,0,0,0.06172839506172839,46.85185185185185,0)" xlink:href="#aL"/><use transform="matrix(0.06172839506172839,0,0,0.06172839506172839,59.197530864197525,0)" xlink:href="#V"/><use transform="matrix(0.06172839506172839,0,0,0.06172839506172839,71.5432098765432,0)" xlink:href="#R"/><use transform="matrix(0.06172839506172839,0,0,0.06172839506172839,82.65432098765432,0)" xlink:href="#S"/></g><path fill="#3a414a" d="M210-169c-67 3-38 105-44 169h-31v-121c0-29-5-50-35-48C34-165 62-65 56 0H25l-1-190h30c1 10-1 24 2 32 10-44 99-50 107 0 11-21 27-35 58-36 85-2 47 119 55 194h-31v-121c0-29-5-49-35-48" id="aP"/><g id="K"><use transform="matrix(0.06172839506172839,0,0,0.06172839506172839,0,0)" xlink:href="#aP"/><use transform="matrix(0.06172839506172839,0,0,0.06172839506172839,18.456790123456788,0)" xlink:href="#V"/><use transform="matrix(0.06172839506172839,0,0,0.06172839506172839,30.80246913580247,0)" xlink:href="#Y"/><use transform="matrix(0.06172839506172839,0,0,0.06172839506172839,43.148148148148145,0)" xlink:href="#V"/><use transform="matrix(0.06172839506172839,0,0,0.06172839506172839,55.49382716049382,0)" xlink:href="#Z"/><use transform="matrix(0.06172839506172839,0,0,0.06172839506172839,67.8395061728395,0)" xlink:href="#S"/><use transform="matrix(0.06172839506172839,0,0,0.06172839506172839,80.18518518518519,0)" xlink:href="#aP"/><use transform="matrix(0.06172839506172839,0,0,0.06172839506172839,98.64197530864197,0)" xlink:href="#S"/><use transform="matrix(0.06172839506172839,0,0,0.06172839506172839,110.98765432098766,0)" xlink:href="#Y"/><use transform="matrix(0.06172839506172839,0,0,0.06172839506172839,123.33333333333334,0)" xlink:href="#au"/></g><g id="L"><use transform="matrix(0.06172839506172839,0,0,0.06172839506172839,0,0)" xlink:href="#av"/><use transform="matrix(0.06172839506172839,0,0,0.06172839506172839,13.518518518518517,0)" xlink:href="#ar"/><use transform="matrix(0.06172839506172839,0,0,0.06172839506172839,18.39506172839506,0)" xlink:href="#ab"/><use transform="matrix(0.06172839506172839,0,0,0.06172839506172839,23.2716049382716,0)" xlink:href="#S"/></g><g id="M"><use transform="matrix(0.04938271604938272,0,0,0.04938271604938272,0,0)" xlink:href="#aC"/><use transform="matrix(0.04938271604938272,0,0,0.04938271604938272,5.8765432098765435,0)" xlink:href="#aD"/><use transform="matrix(0.04938271604938272,0,0,0.04938271604938272,10.814814814814817,0)" xlink:href="#aA"/><use transform="matrix(0.04938271604938272,0,0,0.04938271604938272,15.753086419753087,0)" xlink:href="#ag"/></g><g id="N"><use transform="matrix(0.04938271604938272,0,0,0.04938271604938272,0,0)" xlink:href="#ak"/><use transform="matrix(0.04938271604938272,0,0,0.04938271604938272,5.8765432098765435,0)" xlink:href="#ax"/></g><path fill="#333" d="M24 0v-248h195v40H76v63h132v40H76v65h150V0H24" id="aQ"/><g id="O"><use transform="matrix(0.04938271604938272,0,0,0.04938271604938272,0,0)" xlink:href="#aQ"/><use transform="matrix(0.04938271604938272,0,0,0.04938271604938272,11.851851851851853,0)" xlink:href="#az"/><use transform="matrix(0.04938271604938272,0,0,0.04938271604938272,22.666666666666668,0)" xlink:href="#aN"/><use transform="matrix(0.04938271604938272,0,0,0.04938271604938272,33.48148148148148,0)" xlink:href="#ah"/><use transform="matrix(0.04938271604938272,0,0,0.04938271604938272,44.2962962962963,0)" xlink:href="#ag"/></g><g id="P"><use transform="matrix(0.04938271604938272,0,0,0.04938271604938272,0,0)" xlink:href="#ai"/><use transform="matrix(0.04938271604938272,0,0,0.04938271604938272,9.876543209876544,0)" xlink:href="#ak"/><use transform="matrix(0.04938271604938272,0,0,0.04938271604938272,15.753086419753087,0)" xlink:href="#ae"/><use transform="matrix(0.04938271604938272,0,0,0.04938271604938272,25.629629629629633,0)" xlink:href="#ak"/><use transform="matrix(0.04938271604938272,0,0,0.04938271604938272,31.506172839506174,0)" xlink:href="#ag"/></g></defs></g></svg>