<svg xmlns="http://www.w3.org/2000/svg" xmlns:xlink="http://www.w3.org/1999/xlink" xmlns:lucid="lucid" width="4761" height="843"><g transform="translate(1120.5 -209.5)" lucid:page-tab-id="NSizkJZn5mbU"><path d="M-1500 0h5500v1500h-5500z" fill="#fff"/><path d="M420.42 528.9a6 6 0 0 1 8.5 0l111.5 111.52a6 6 0 0 1 0 8.5l-111.5 111.5a6 6 0 0 1-8.5 0l-111.5-111.5a6 6 0 0 1 0-8.5z" stroke="#3a414a" fill="#fff"/><use xlink:href="#a" transform="matrix(1,0,0,1,309.66666666666674,529.6666666666666) translate(25.005000000000006 104.40277777777777)"/><use xlink:href="#b" transform="matrix(1,0,0,1,309.66666666666674,529.6666666666666) translate(95.2519135802469 104.40277777777777)"/><use xlink:href="#c" transform="matrix(1,0,0,1,309.66666666666674,529.6666666666666) translate(65.62228395061727 131.06944444444446)"/><path d="M1240.67 424.67c24.3 0 44 26.86 44 60 0 33.13-19.7 60-44 60h-352c-24.3 0-44-26.87-44-60 0-33.14 19.7-60 44-60z" stroke="#3a414a" fill="#fff"/><path d="M1240.67 544.67c-24.3 0-44-26.87-44-60 0-33.14 19.7-60 44-60" stroke="#3a414a" fill="none"/><use xlink:href="#d" transform="matrix(1,0,0,1,849.6666666666667,429.66666666666663) translate(27.358024691358025 45.27777777777778)"/><use xlink:href="#e" transform="matrix(1,0,0,1,849.6666666666667,429.66666666666663) translate(134.64197530864197 45.27777777777778)"/><use xlink:href="#b" transform="matrix(1,0,0,1,849.6666666666667,429.66666666666663) translate(204.88888888888886 45.27777777777778)"/><use xlink:href="#f" transform="matrix(1,0,0,1,849.6666666666667,429.66666666666663) translate(137.66666666666669 71.94444444444446)"/><path d="M-19.33 424.67c24.3 0 44 26.86 44 60 0 33.13-19.7 60-44 60h-352c-24.3 0-44-26.87-44-60 0-33.14 19.7-60 44-60z" stroke="#3a414a" fill="#fff"/><path d="M-19.33 544.67c-24.3 0-44-26.87-44-60 0-33.14 19.7-60 44-60" stroke="#3a414a" fill="none"/><use xlink:href="#d" transform="matrix(1,0,0,1,-410.33333333333326,429.66666666666663) translate(26.09259259259261 59.02777777777778)"/><use xlink:href="#g" transform="matrix(1,0,0,1,-410.33333333333326,429.66666666666663) translate(133.37654320987656 59.02777777777778)"/><use xlink:href="#h" transform="matrix(1,0,0,1,-410.33333333333326,429.66666666666663) translate(186.33950617283952 59.02777777777778)"/><use xlink:href="#f" transform="matrix(1,0,0,1,-410.33333333333326,429.66666666666663) translate(249.24074074074076 59.02777777777778)"/><path d="M224.67 644.67c0 44.18-35.82 80-80 80-44.2 0-80-35.82-80-80 0-44.2 35.8-80 80-80 44.18 0 80 35.8 80 80z" stroke="#3a414a" fill="#fff"/><use xlink:href="#i" transform="matrix(1,0,0,1,69.66666666666674,569.6666666666666) translate(23.85802469135802 78.71527777777777)"/><path d="M25.67 484.67h113a6 6 0 0 1 6 6v72.6" stroke="#3a414a" fill="none"/><path d="M25.68 485.14h-.53l.02-.47-.02-.48h.53z" stroke="#3a414a" stroke-width=".05" fill="#3a414a"/><path d="M134.5 545.97l10.17 17.2 10.18-17.2M225.67 644.67h64.6" stroke="#3a414a" fill="none"/><path d="M225.68 645.14h-.53l.02-.47v-.48h.5z" stroke="#3a414a" stroke-width=".05" fill="#3a414a"/><path d="M305.03 644.67l-14.26 4.63v-9.27z" stroke="#3a414a" fill="#3a414a"/><path d="M424.67 526.15v-35.48a6 6 0 0 1 6-6h412.6" stroke="#3a414a" fill="none"/><path d="M425.14 526.7l-.47-.05-.48.04v-.56h.94z" stroke="#3a414a" stroke-width=".05" fill="#3a414a"/><path d="M825.97 494.85l17.2-10.18-17.2-10.18" stroke="#3a414a" fill="none"/><use xlink:href="#j" transform="matrix(1,0,0,1,464.3560930219532,459.33333333333326) translate(0 14.222222222222223)"/><path d="M-19.33 764.67c24.3 0 44 26.86 44 60 0 33.13-19.7 60-44 60h-352c-24.3 0-44-26.87-44-60 0-33.14 19.7-60 44-60z" stroke="#3a414a" fill="#fff"/><path d="M-19.33 884.67c-24.3 0-44-26.87-44-60 0-33.14 19.7-60 44-60" stroke="#3a414a" fill="none"/><use xlink:href="#d" transform="matrix(1,0,0,1,-410.33333333333326,769.6666666666666) translate(17.481481481481467 59.02777777777778)"/><use xlink:href="#g" transform="matrix(1,0,0,1,-410.33333333333326,769.6666666666666) translate(124.76543209876542 59.02777777777778)"/><use xlink:href="#k" transform="matrix(1,0,0,1,-410.33333333333326,769.6666666666666) translate(177.72839506172838 59.02777777777778)"/><use xlink:href="#f" transform="matrix(1,0,0,1,-410.33333333333326,769.6666666666666) translate(257.85185185185185 59.02777777777778)"/><path d="M1240.67 764.67c24.3 0 44 26.86 44 60 0 33.13-19.7 60-44 60h-352c-24.3 0-44-26.87-44-60 0-33.14 19.7-60 44-60z" stroke="#3a414a" fill="#fff"/><path d="M1240.67 884.67c-24.3 0-44-26.87-44-60 0-33.14 19.7-60 44-60" stroke="#3a414a" fill="none"/><use xlink:href="#d" transform="matrix(1,0,0,1,849.6666666666667,769.6666666666666) translate(8.839506172839549 59.02777777777778)"/><use xlink:href="#e" transform="matrix(1,0,0,1,849.6666666666667,769.6666666666666) translate(116.1234567901235 59.02777777777778)"/><use xlink:href="#k" transform="matrix(1,0,0,1,849.6666666666667,769.6666666666666) translate(186.37037037037038 59.02777777777778)"/><use xlink:href="#f" transform="matrix(1,0,0,1,849.6666666666667,769.6666666666666) translate(266.4938271604938 59.02777777777778)"/><path d="M424.67 763.18v55.5a6 6 0 0 1-6 6H26.07" stroke="#3a414a" fill="none"/><path d="M424.67 762.68l.47-.03v.55h-.95v-.55z" stroke="#3a414a" stroke-width=".05" fill="#3a414a"/><path d="M43.36 814.5l-17.2 10.17 17.2 10.18" stroke="#3a414a" fill="none"/><use xlink:href="#l" transform="matrix(1,0,0,1,170.53812760613684,828.6666666666666) translate(0 14.222222222222223)"/><path d="M784.67 644.67c0 44.18-35.82 80-80 80-44.2 0-80-35.82-80-80 0-44.2 35.8-80 80-80 44.18 0 80 35.8 80 80z" stroke="#3a414a" fill="#fff"/><use xlink:href="#i" transform="matrix(1,0,0,1,629.6666666666667,569.6666666666666) translate(23.85802469135802 78.71527777777777)"/><path d="M623.67 644.67H543.6" stroke="#3a414a" fill="none"/><path d="M624.17 644.66v.48h-.52v-.95h.53z" stroke="#3a414a" stroke-width=".05" fill="#3a414a"/><path d="M560.88 634.5l-17.2 10.17 17.2 10.18M843.67 824.67h-133a6 6 0 0 1-6-6v-92.6" stroke="#3a414a" fill="none"/><path d="M844.17 824.66v.48h-.52v-.95h.54z" stroke="#3a414a" stroke-width=".05" fill="#3a414a"/><path d="M714.85 743.36l-10.18-17.2-10.18 17.2" stroke="#3a414a" fill="none"/><path d="M2570.42 523.58a6 6 0 0 1 8.5 0l111.5 111.5a6 6 0 0 1 0 8.5l-111.5 111.5a6 6 0 0 1-8.5 0l-111.5-111.5a6 6 0 0 1 0-8.5z" stroke="#3a414a" fill="#fff"/><use xlink:href="#m" transform="matrix(1,0,0,1,2459.6666666666665,524.3333333333333) translate(30.52969135802469 104.40277777777777)"/><use xlink:href="#b" transform="matrix(1,0,0,1,2459.6666666666665,524.3333333333333) translate(89.72722222222222 104.40277777777777)"/><use xlink:href="#c" transform="matrix(1,0,0,1,2459.6666666666665,524.3333333333333) translate(65.62228395061727 131.06944444444446)"/><path d="M3316 250c24.3 0 44 26.86 44 60s-19.7 60-44 60h-352c-24.3 0-44-26.86-44-60s19.7-60 44-60z" stroke="#3a414a" fill="#fff"/><path d="M3316 370c-24.3 0-44-26.86-44-60s19.7-60 44-60" stroke="#3a414a" fill="none"/><use xlink:href="#m" transform="matrix(1,0,0,1,2925,255) translate(15.012345679012356 59.02777777777778)"/><use xlink:href="#n" transform="matrix(1,0,0,1,2925,255) translate(74.20987654320989 59.02777777777778)"/><use xlink:href="#o" transform="matrix(1,0,0,1,2925,255) translate(126 59.02777777777778)"/><use xlink:href="#f" transform="matrix(1,0,0,1,2925,255) translate(260.320987654321 59.02777777777778)"/><path d="M3316 579.33c24.3 0 44 26.87 44 60 0 33.14-19.7 60-44 60h-352c-24.3 0-44-26.86-44-60 0-33.13 19.7-60 44-60z" stroke="#3a414a" fill="#fff"/><path d="M3316 699.33c-24.3 0-44-26.86-44-60 0-33.13 19.7-60 44-60" stroke="#3a414a" fill="none"/><use xlink:href="#m" transform="matrix(1,0,0,1,2925,584.3333333333333) translate(24.209876543209873 59.02777777777778)"/><use xlink:href="#n" transform="matrix(1,0,0,1,2925,584.3333333333333) translate(83.4074074074074 59.02777777777778)"/><use xlink:href="#p" transform="matrix(1,0,0,1,2925,584.3333333333333) translate(135.19753086419752 59.02777777777778)"/><use xlink:href="#f" transform="matrix(1,0,0,1,2925,584.3333333333333) translate(251.12345679012344 59.02777777777778)"/><path d="M2016 764.67c24.3 0 44 26.86 44 60 0 33.13-19.7 60-44 60h-352c-24.3 0-44-26.87-44-60 0-33.14 19.7-60 44-60z" stroke="#3a414a" fill="#fff"/><path d="M2016 884.67c-24.3 0-44-26.87-44-60 0-33.14 19.7-60 44-60" stroke="#3a414a" fill="none"/><use xlink:href="#d" transform="matrix(1,0,0,1,1625,769.6666666666667) translate(8.839506172839549 59.02777777777778)"/><use xlink:href="#e" transform="matrix(1,0,0,1,1625,769.6666666666667) translate(116.1234567901235 59.02777777777778)"/><use xlink:href="#k" transform="matrix(1,0,0,1,1625,769.6666666666667) translate(186.37037037037038 59.02777777777778)"/><use xlink:href="#f" transform="matrix(1,0,0,1,1625,769.6666666666667) translate(266.4938271604938 59.02777777777778)"/><path d="M2320.96 484.67c0 44.18-35.8 80-80 80-44.18 0-80-35.82-80-80 0-44.2 35.82-80 80-80 44.2 0 80 35.8 80 80z" stroke="#3a414a" fill="#fff"/><use xlink:href="#i" transform="matrix(1,0,0,1,2165.9629433241507,409.66666666666663) translate(23.85802469135802 78.71527777777777)"/><path d="M2016 424.67c24.3 0 44 26.86 44 60 0 33.13-19.7 60-44 60h-352c-24.3 0-44-26.87-44-60 0-33.14 19.7-60 44-60z" stroke="#3a414a" fill="#fff"/><path d="M2016 544.67c-24.3 0-44-26.87-44-60 0-33.14 19.7-60 44-60" stroke="#3a414a" fill="none"/><use xlink:href="#d" transform="matrix(1,0,0,1,1625,429.66666666666663) translate(27.358024691358025 45.27777777777778)"/><use xlink:href="#e" transform="matrix(1,0,0,1,1625,429.66666666666663) translate(134.64197530864197 45.27777777777778)"/><use xlink:href="#b" transform="matrix(1,0,0,1,1625,429.66666666666663) translate(204.88888888888886 45.27777777777778)"/><use xlink:href="#f" transform="matrix(1,0,0,1,1625,429.66666666666663) translate(137.66666666666669 71.94444444444446)"/><path d="M2321.96 484.67h94.94a6 6 0 0 1 6 6v72.28a6 6 0 0 0 6 6h94.53" stroke="#3a414a" fill="none"/><path d="M2321.98 485.14h-.53v-.95h.53z" stroke="#3a414a" stroke-width=".05" fill="#3a414a"/><path d="M2506.14 579.13l17.22-10.18-17.22-10.18M2061 484.67h98.55" stroke="#3a414a" fill="none"/><path d="M2061 485.14h-.52l.02-.47-.02-.48h.53z" stroke="#3a414a" stroke-width=".05" fill="#3a414a"/><path d="M2142.27 494.85l17.2-10.18-17.2-10.18M2456.15 639.33h-191.58a6 6 0 0 0-6 6v173.34a6 6 0 0 1-6 6H2061.4" stroke="#3a414a" fill="none"/><path d="M2456.65 639.33l.04.48h-.56v-.94h.55z" stroke="#3a414a" stroke-width=".05" fill="#3a414a"/><path d="M2078.7 814.5l-17.22 10.17 17.22 10.18" stroke="#3a414a" fill="none"/><use xlink:href="#q" transform="matrix(1,0,0,1,2099.7605569927123,699.3364360636542) translate(0 14.222222222222223)"/><path d="M2693.18 639.33h225.4" stroke="#3a414a" fill="none"/><path d="M2693.2 639.8h-.55l.03-.47-.03-.47h.55z" stroke="#3a414a" stroke-width=".05" fill="#3a414a"/><path d="M2901.3 649.5l17.22-10.17-17.22-10.18" stroke="#3a414a" fill="none"/><use xlink:href="#r" transform="matrix(1,0,0,1,2715.8690726369173,613.9999999999999) translate(0 14.222222222222223)"/><path d="M2574.67 520.82V316a6 6 0 0 1 6-6h337.92" stroke="#3a414a" fill="none"/><path d="M2575.14 521.35l-.47-.03-.48.03v-.55h.94z" stroke="#3a414a" stroke-width=".05" fill="#3a414a"/><path d="M2901.3 320.18l17.22-10.18-17.22-10.18" stroke="#3a414a" fill="none"/><use xlink:href="#s" transform="matrix(1,0,0,1,2655.542867980203,284.66666666666663) translate(0 14.222222222222223)"/><path d="M3620 310c0 44.18-35.82 80-80 80s-80-35.82-80-80 35.82-80 80-80 80 35.82 80 80z" stroke="#3a414a" fill="#fff"/><use xlink:href="#i" transform="matrix(1,0,0,1,3465,235) translate(23.85802469135802 78.71527777777777)"/><path d="M3361 310h97.6" stroke="#3a414a" fill="none"/><path d="M3361 310.48h-.52l.02-.48-.02-.48h.53z" stroke="#3a414a" stroke-width=".05" fill="#3a414a"/><path d="M3441.3 320.18l17.22-10.18-17.22-10.18M3540 391v86.45a6 6 0 0 1-6 6h-895.55a6 6 0 0 0-6 6v86.05" stroke="#3a414a" fill="none"/><path d="M3540 390.5h.47v.5h-.94v-.5z" stroke="#3a414a" stroke-width=".05" fill="#3a414a"/><path d="M2622.27 558.2l10.18 17.22 10.18-17.2" stroke="#3a414a" fill="none"/><path d="M3620 639.33c0 44.2-35.82 80-80 80s-80-35.8-80-80c0-44.18 35.82-80 80-80s80 35.82 80 80z" stroke="#3a414a" fill="#fff"/><use xlink:href="#i" transform="matrix(1,0,0,1,3465,564.3333333333333) translate(23.85802469135802 78.71527777777777)"/><path d="M3361 639.33h97.6" stroke="#3a414a" fill="none"/><path d="M3361 639.8h-.52l.02-.46-.02-.48h.53z" stroke="#3a414a" stroke-width=".05" fill="#3a414a"/><path d="M3441.3 649.5l17.22-10.17-17.22-10.18M3540 720.33v33.5a6 6 0 0 1-6 6h-854.54a6 6 0 0 1-6-6v-46.58a6 6 0 0 0-6-6h-33.1" stroke="#3a414a" fill="none"/><path d="M3540 719.83h.47v.52h-.94v-.53z" stroke="#3a414a" stroke-width=".05" fill="#3a414a"/><path d="M2651.66 691.07l-17.22 10.18 17.22 10.18" stroke="#3a414a" fill="none"/><path d="M3316 870c24.3 0 44 26.86 44 60s-19.7 60-44 60h-352c-24.3 0-44-26.86-44-60s19.7-60 44-60z" stroke="#3a414a" fill="#fff"/><path d="M3316 990c-24.3 0-44-26.86-44-60s19.7-60 44-60" stroke="#3a414a" fill="none"/><use xlink:href="#m" transform="matrix(1,0,0,1,2925,875) translate(29.17901234567904 59.02777777777778)"/><use xlink:href="#n" transform="matrix(1,0,0,1,2925,875) translate(88.37654320987657 59.02777777777778)"/><use xlink:href="#t" transform="matrix(1,0,0,1,2925,875) translate(140.16666666666669 59.02777777777778)"/><use xlink:href="#f" transform="matrix(1,0,0,1,2925,875) translate(246.15432098765433 59.02777777777778)"/><path d="M2574.67 757.85V924a6 6 0 0 0 6 6h337.92" stroke="#3a414a" fill="none"/><path d="M2574.67 757.35l.47-.04v.56h-.95v-.55z" stroke="#3a414a" stroke-width=".05" fill="#3a414a"/><path d="M2901.3 940.18l17.22-10.18-17.22-10.18" stroke="#3a414a" fill="none"/><use xlink:href="#u" transform="matrix(1,0,0,1,2663.1344879147664,904.6666666666667) translate(0 14.222222222222223)"/><path d="M3620 930c0 44.18-35.82 80-80 80s-80-35.82-80-80 35.82-80 80-80 80 35.82 80 80z" stroke="#3a414a" fill="#fff"/><g><use xlink:href="#i" transform="matrix(1,0,0,1,3465,855) translate(23.85802469135802 78.71527777777777)"/></g><path d="M3361 930h97.6" stroke="#3a414a" fill="none"/><path d="M3361 930.48h-.52l.02-.48-.02-.48h.53z" stroke="#3a414a" stroke-width=".05" fill="#3a414a"/><path d="M3441.3 940.18l17.22-10.18-17.22-10.18M3540 1011v33.5a6 6 0 0 1-6 6H2517.74a6 6 0 0 1-6-6V698.02" stroke="#3a414a" fill="none"/><path d="M3540 1010.5h.47v.5h-.94v-.5z" stroke="#3a414a" stroke-width=".05" fill="#3a414a"/><path d="M2521.92 715.3l-10.18-17.2-10.18 17.2M1285.67 484.67h10.1m10.07 0h20.18m10.1 0h20.17m10.08 0h20.17m10.1 0h20.17m10.1 0h20.16m10.1 0h20.17m10.1 0h20.17m10.1 0h20.16m10.1 0h20.17m10.1 0h20.16m10.1 0h10.1" stroke="#3a414a" fill="none"/><path d="M1285.68 485.14h-.53l.02-.47-.02-.48h.53z" stroke="#3a414a" stroke-width=".05" fill="#3a414a"/><path d="M1601.3 494.85l17.22-10.18-17.22-10.18" stroke="#3a414a" fill="none"/><g><use xlink:href="#v" transform="matrix(1,0,0,1,1370.1111111111113,459.33333333333326) translate(0 14.222222222222223)"/><use xlink:href="#w" transform="matrix(1,0,0,1,1370.1111111111113,459.33333333333326) translate(90.61728395061729 14.222222222222223)"/><use xlink:href="#x" transform="matrix(1,0,0,1,1370.1111111111113,459.33333333333326) translate(112.24691358024693 14.222222222222223)"/></g><path d="M1619 824.67h-10.1m-10.08 0h-20.17m-10.1 0h-20.17m-10.1 0h-20.17m-10.07 0h-20.18m-10.1 0h-20.17m-10.1 0h-20.16m-10.1 0h-20.17m-10.1 0h-20.16m-10.1 0h-20.18m-10.1 0h-20.17m-10.1 0h-10.07" stroke="#3a414a" fill="none"/><path d="M1619.5 824.66l.02.48h-.53v-.95h.52z" stroke="#3a414a" stroke-width=".05" fill="#3a414a"/><path d="M1303.36 814.5l-17.2 10.17 17.2 10.18" stroke="#3a414a" fill="none"/><g><use xlink:href="#v" transform="matrix(1,0,0,1,1370.1111111111113,799.3333333333334) translate(0 14.222222222222223)"/><use xlink:href="#w" transform="matrix(1,0,0,1,1370.1111111111113,799.3333333333334) translate(90.61728395061729 14.222222222222223)"/><use xlink:href="#x" transform="matrix(1,0,0,1,1370.1111111111113,799.3333333333334) translate(112.24691358024693 14.222222222222223)"/></g><path d="M-704 424.67c24.3 0 44 26.86 44 60 0 33.13-19.7 60-44 60h-352c-24.3 0-44-26.87-44-60 0-33.14 19.7-60 44-60z" stroke="#3a414a" fill="#fff"/><path d="M-704 544.67c-24.3 0-44-26.87-44-60 0-33.14 19.7-60 44-60" stroke="#3a414a" fill="none"/><g><use xlink:href="#d" transform="matrix(1,0,0,1,-1095,429.66666666666663) translate(26.09259259259261 59.02777777777778)"/><use xlink:href="#g" transform="matrix(1,0,0,1,-1095,429.66666666666663) translate(133.37654320987656 59.02777777777778)"/><use xlink:href="#h" transform="matrix(1,0,0,1,-1095,429.66666666666663) translate(186.33950617283952 59.02777777777778)"/><use xlink:href="#f" transform="matrix(1,0,0,1,-1095,429.66666666666663) translate(249.24074074074076 59.02777777777778)"/></g><path d="M-704 764.67c24.3 0 44 26.86 44 60 0 33.13-19.7 60-44 60h-352c-24.3 0-44-26.87-44-60 0-33.14 19.7-60 44-60z" stroke="#3a414a" fill="#fff"/><path d="M-704 884.67c-24.3 0-44-26.87-44-60 0-33.14 19.7-60 44-60" stroke="#3a414a" fill="none"/><g><use xlink:href="#d" transform="matrix(1,0,0,1,-1095,769.6666666666667) translate(17.481481481481467 59.02777777777778)"/><use xlink:href="#g" transform="matrix(1,0,0,1,-1095,769.6666666666667) translate(124.76543209876542 59.02777777777778)"/><use xlink:href="#k" transform="matrix(1,0,0,1,-1095,769.6666666666667) translate(177.72839506172838 59.02777777777778)"/><use xlink:href="#f" transform="matrix(1,0,0,1,-1095,769.6666666666667) translate(257.85185185185185 59.02777777777778)"/></g><path d="M-659 484.67h10.1m10.1 0h20.18m10.1 0h20.18m10.1 0h20.18m10.1 0h20.18m10.1 0h20.18m10.1 0h20.2m10.08 0h20.2m10.08 0h10.1" stroke="#3a414a" fill="none"/><path d="M-659 485.14h-.52l.02-.47-.02-.48h.53z" stroke="#3a414a" stroke-width=".05" fill="#3a414a"/><path d="M-434.03 494.85l17.2-10.18-17.2-10.18" stroke="#3a414a" fill="none"/><g><use xlink:href="#v" transform="matrix(1,0,0,1,-619.8888888888889,459.33333333333326) translate(0 14.222222222222223)"/><use xlink:href="#w" transform="matrix(1,0,0,1,-619.8888888888889,459.33333333333326) translate(90.61728395061729 14.222222222222223)"/><use xlink:href="#x" transform="matrix(1,0,0,1,-619.8888888888889,459.33333333333326) translate(112.24691358024693 14.222222222222223)"/></g><path d="M-416.33 824.67h-10.1m-10.1 0h-20.18m-10.1 0H-487m-10.1 0h-20.17m-10.1 0h-20.2m-10.08 0h-20.2m-10.08 0h-20.2m-10.08 0h-20.2m-10.1 0h-10.1" stroke="#3a414a" fill="none"/><path d="M-415.83 824.66v.48h-.52v-.95h.54z" stroke="#3a414a" stroke-width=".05" fill="#3a414a"/><path d="M-641.3 814.5l-17.22 10.17 17.22 10.18" stroke="#3a414a" fill="none"/><g><use xlink:href="#v" transform="matrix(1,0,0,1,-619.8888888888889,799.3333333333334) translate(0 14.222222222222223)"/><use xlink:href="#w" transform="matrix(1,0,0,1,-619.8888888888889,799.3333333333334) translate(90.61728395061729 14.222222222222223)"/><use xlink:href="#x" transform="matrix(1,0,0,1,-619.8888888888889,799.3333333333334) translate(112.24691358024693 14.222222222222223)"/></g><defs><path fill="#3a414a" d="M143 4C61 4 22-44 18-125c-5-107 100-154 193-111 17 8 29 25 37 43l-32 9c-13-25-37-40-76-40-61 0-88 39-88 99 0 61 29 100 91 101 35 0 62-11 79-27v-45h-74v-28h105v86C228-13 192 4 143 4" id="y"/><path fill="#3a414a" d="M24 0v-261h32V0H24" id="z"/><path fill="#3a414a" d="M100-194c62-1 85 37 85 99 1 63-27 99-86 99S16-35 15-95c0-66 28-99 85-99zM99-20c44 1 53-31 53-75 0-43-8-75-51-75s-53 32-53 75 10 74 51 75" id="A"/><path fill="#3a414a" d="M115-194c53 0 69 39 70 98 0 66-23 100-70 100C84 3 66-7 56-30L54 0H23l1-261h32v101c10-23 28-34 59-34zm-8 174c40 0 45-34 45-75 0-40-5-75-45-74-42 0-51 32-51 76 0 43 10 73 51 73" id="B"/><path fill="#3a414a" d="M141-36C126-15 110 5 73 4 37 3 15-17 15-53c-1-64 63-63 125-63 3-35-9-54-41-54-24 1-41 7-42 31l-33-3c5-37 33-52 76-52 45 0 72 20 72 64v82c-1 20 7 32 28 27v20c-31 9-61-2-59-35zM48-53c0 20 12 33 32 33 41-3 63-29 60-74-43 2-92-5-92 41" id="C"/><g id="a"><use transform="matrix(0.06172839506172839,0,0,0.06172839506172839,0,0)" xlink:href="#y"/><use transform="matrix(0.06172839506172839,0,0,0.06172839506172839,17.28395061728395,0)" xlink:href="#z"/><use transform="matrix(0.06172839506172839,0,0,0.06172839506172839,22.160493827160494,0)" xlink:href="#A"/><use transform="matrix(0.06172839506172839,0,0,0.06172839506172839,34.50617283950617,0)" xlink:href="#B"/><use transform="matrix(0.06172839506172839,0,0,0.06172839506172839,46.85185185185185,0)" xlink:href="#C"/><use transform="matrix(0.06172839506172839,0,0,0.06172839506172839,59.197530864197525,0)" xlink:href="#z"/></g><path fill="#3a414a" d="M30-248c87 1 191-15 191 75 0 78-77 80-158 76V0H30v-248zm33 125c57 0 124 11 124-50 0-59-68-47-124-48v98" id="D"/><path fill="#3a414a" d="M114-163C36-179 61-72 57 0H25l-1-190h30c1 12-1 29 2 39 6-27 23-49 58-41v29" id="E"/><path fill="#3a414a" d="M96-169c-40 0-48 33-48 73s9 75 48 75c24 0 41-14 43-38l32 2c-6 37-31 61-74 61-59 0-76-41-82-99-10-93 101-131 147-64 4 7 5 14 7 22l-32 3c-4-21-16-35-41-35" id="F"/><path fill="#3a414a" d="M100-194c63 0 86 42 84 106H49c0 40 14 67 53 68 26 1 43-12 49-29l28 8c-11 28-37 45-77 45C44 4 14-33 15-96c1-61 26-98 85-98zm52 81c6-60-76-77-97-28-3 7-6 17-6 28h103" id="G"/><path fill="#3a414a" d="M135-143c-3-34-86-38-87 0 15 53 115 12 119 90S17 21 10-45l28-5c4 36 97 45 98 0-10-56-113-15-118-90-4-57 82-63 122-42 12 7 21 19 24 35" id="H"/><path fill="#3a414a" d="M24-231v-30h32v30H24zM24 0v-190h32V0H24" id="I"/><path fill="#3a414a" d="M117-194c89-4 53 116 60 194h-32v-121c0-31-8-49-39-48C34-167 62-67 57 0H25l-1-190h30c1 10-1 24 2 32 11-22 29-35 61-36" id="J"/><path fill="#3a414a" d="M177-190C167-65 218 103 67 71c-23-6-38-20-44-43l32-5c15 47 100 32 89-28v-30C133-14 115 1 83 1 29 1 15-40 15-95c0-56 16-97 71-98 29-1 48 16 59 35 1-10 0-23 2-32h30zM94-22c36 0 50-32 50-73 0-42-14-75-50-75-39 0-46 34-46 75s6 73 46 73" id="K"/><g id="b"><use transform="matrix(0.06172839506172839,0,0,0.06172839506172839,0,0)" xlink:href="#D"/><use transform="matrix(0.06172839506172839,0,0,0.06172839506172839,14.814814814814813,0)" xlink:href="#E"/><use transform="matrix(0.06172839506172839,0,0,0.06172839506172839,22.160493827160494,0)" xlink:href="#A"/><use transform="matrix(0.06172839506172839,0,0,0.06172839506172839,34.50617283950617,0)" xlink:href="#F"/><use transform="matrix(0.06172839506172839,0,0,0.06172839506172839,45.61728395061728,0)" xlink:href="#G"/><use transform="matrix(0.06172839506172839,0,0,0.06172839506172839,57.962962962962955,0)" xlink:href="#H"/><use transform="matrix(0.06172839506172839,0,0,0.06172839506172839,69.07407407407406,0)" xlink:href="#H"/><use transform="matrix(0.06172839506172839,0,0,0.06172839506172839,80.18518518518518,0)" xlink:href="#I"/><use transform="matrix(0.06172839506172839,0,0,0.06172839506172839,85.06172839506172,0)" xlink:href="#J"/><use transform="matrix(0.06172839506172839,0,0,0.06172839506172839,97.4074074074074,0)" xlink:href="#K"/></g><path fill="#3a414a" d="M30 0v-248h187v28H63v79h144v27H63v87h162V0H30" id="L"/><path fill="#3a414a" d="M141 0L90-78 38 0H4l68-98-65-92h35l48 74 47-74h35l-64 92 68 98h-35" id="M"/><path fill="#3a414a" d="M106-169C34-169 62-67 57 0H25v-261h32l-1 103c12-21 28-36 61-36 89 0 53 116 60 194h-32v-121c2-32-8-49-39-48" id="N"/><g id="c"><use transform="matrix(0.06172839506172839,0,0,0.06172839506172839,0,0)" xlink:href="#L"/><use transform="matrix(0.06172839506172839,0,0,0.06172839506172839,14.814814814814813,0)" xlink:href="#M"/><use transform="matrix(0.06172839506172839,0,0,0.06172839506172839,25.925925925925924,0)" xlink:href="#F"/><use transform="matrix(0.06172839506172839,0,0,0.06172839506172839,37.03703703703704,0)" xlink:href="#N"/><use transform="matrix(0.06172839506172839,0,0,0.06172839506172839,49.382716049382715,0)" xlink:href="#C"/><use transform="matrix(0.06172839506172839,0,0,0.06172839506172839,61.72839506172839,0)" xlink:href="#J"/><use transform="matrix(0.06172839506172839,0,0,0.06172839506172839,74.07407407407408,0)" xlink:href="#K"/><use transform="matrix(0.06172839506172839,0,0,0.06172839506172839,86.41975308641976,0)" xlink:href="#G"/></g><path fill="#3a414a" d="M63-220v92h138v28H63V0H30v-248h175v28H63" id="O"/><path fill="#3a414a" d="M85-194c31 0 48 13 60 33l-1-100h32l1 261h-30c-2-10 0-23-3-31C134-8 116 4 85 4 32 4 16-35 15-94c0-66 23-100 70-100zm9 24c-40 0-46 34-46 75 0 40 6 74 45 74 42 0 51-32 51-76 0-42-9-74-50-73" id="P"/><path fill="#3a414a" d="M59-47c-2 24 18 29 38 22v24C64 9 27 4 27-40v-127H5v-23h24l9-43h21v43h35v23H59v120" id="Q"/><g id="d"><use transform="matrix(0.06172839506172839,0,0,0.06172839506172839,0,0)" xlink:href="#O"/><use transform="matrix(0.06172839506172839,0,0,0.06172839506172839,13.518518518518517,0)" xlink:href="#G"/><use transform="matrix(0.06172839506172839,0,0,0.06172839506172839,25.864197530864196,0)" xlink:href="#P"/><use transform="matrix(0.06172839506172839,0,0,0.06172839506172839,38.20987654320987,0)" xlink:href="#G"/><use transform="matrix(0.06172839506172839,0,0,0.06172839506172839,50.55555555555555,0)" xlink:href="#E"/><use transform="matrix(0.06172839506172839,0,0,0.06172839506172839,57.90123456790123,0)" xlink:href="#C"/><use transform="matrix(0.06172839506172839,0,0,0.06172839506172839,70.24691358024691,0)" xlink:href="#Q"/><use transform="matrix(0.06172839506172839,0,0,0.06172839506172839,76.41975308641975,0)" xlink:href="#G"/><use transform="matrix(0.06172839506172839,0,0,0.06172839506172839,88.76543209876543,0)" xlink:href="#P"/></g><g id="e"><use transform="matrix(0.06172839506172839,0,0,0.06172839506172839,0,0)" xlink:href="#y"/><use transform="matrix(0.06172839506172839,0,0,0.06172839506172839,17.28395061728395,0)" xlink:href="#z"/><use transform="matrix(0.06172839506172839,0,0,0.06172839506172839,22.160493827160494,0)" xlink:href="#A"/><use transform="matrix(0.06172839506172839,0,0,0.06172839506172839,34.50617283950617,0)" xlink:href="#B"/><use transform="matrix(0.06172839506172839,0,0,0.06172839506172839,46.85185185185185,0)" xlink:href="#C"/><use transform="matrix(0.06172839506172839,0,0,0.06172839506172839,59.197530864197525,0)" xlink:href="#z"/></g><path fill="#3a414a" d="M140-251c81 0 123 46 123 126C263-53 228-8 163 1c7 30 30 48 69 40v23c-55 16-95-15-103-61C56-3 17-48 17-125c0-80 42-126 123-126zm0 227c63 0 89-41 89-101s-29-99-89-99c-61 0-89 39-89 99S79-25 140-24" id="R"/><path fill="#3a414a" d="M84 4C-5 8 30-112 23-190h32v120c0 31 7 50 39 49 72-2 45-101 50-169h31l1 190h-30c-1-10 1-25-2-33-11 22-28 36-60 37" id="S"/><g id="f"><use transform="matrix(0.06172839506172839,0,0,0.06172839506172839,0,0)" xlink:href="#R"/><use transform="matrix(0.06172839506172839,0,0,0.06172839506172839,17.28395061728395,0)" xlink:href="#S"/><use transform="matrix(0.06172839506172839,0,0,0.06172839506172839,29.629629629629626,0)" xlink:href="#G"/><use transform="matrix(0.06172839506172839,0,0,0.06172839506172839,41.9753086419753,0)" xlink:href="#S"/><use transform="matrix(0.06172839506172839,0,0,0.06172839506172839,54.32098765432098,0)" xlink:href="#G"/></g><path fill="#3a414a" d="M232-93c-1 65-40 97-104 97C67 4 28-28 28-90v-158h33c8 89-33 224 67 224 102 0 64-133 71-224h33v155" id="T"/><g id="g"><use transform="matrix(0.06172839506172839,0,0,0.06172839506172839,0,0)" xlink:href="#T"/><use transform="matrix(0.06172839506172839,0,0,0.06172839506172839,15.987654320987653,0)" xlink:href="#H"/><use transform="matrix(0.06172839506172839,0,0,0.06172839506172839,27.098765432098766,0)" xlink:href="#G"/><use transform="matrix(0.06172839506172839,0,0,0.06172839506172839,39.44444444444444,0)" xlink:href="#E"/></g><path fill="#3a414a" d="M127-220V0H93v-220H8v-28h204v28h-85" id="U"/><path fill="#3a414a" d="M143 0L79-87 56-68V0H24v-261h32v163l83-92h37l-77 82L181 0h-38" id="V"/><g id="h"><use transform="matrix(0.06172839506172839,0,0,0.06172839506172839,0,0)" xlink:href="#U"/><use transform="matrix(0.06172839506172839,0,0,0.06172839506172839,11.049382716049381,0)" xlink:href="#C"/><use transform="matrix(0.06172839506172839,0,0,0.06172839506172839,23.39506172839506,0)" xlink:href="#H"/><use transform="matrix(0.06172839506172839,0,0,0.06172839506172839,34.50617283950617,0)" xlink:href="#V"/><use transform="matrix(0.06172839506172839,0,0,0.06172839506172839,45.61728395061728,0)" xlink:href="#H"/></g><path fill="#3a414a" d="M212-179c-10-28-35-45-73-45-59 0-87 40-87 99 0 60 29 101 89 101 43 0 62-24 78-52l27 14C228-24 195 4 139 4 59 4 22-46 18-125c-6-104 99-153 187-111 19 9 31 26 39 46" id="W"/><path fill="#3a414a" d="M210-169c-67 3-38 105-44 169h-31v-121c0-29-5-50-35-48C34-165 62-65 56 0H25l-1-190h30c1 10-1 24 2 32 10-44 99-50 107 0 11-21 27-35 58-36 85-2 47 119 55 194h-31v-121c0-29-5-49-35-48" id="X"/><g id="i"><use transform="matrix(0.06172839506172839,0,0,0.06172839506172839,0,0)" xlink:href="#W"/><use transform="matrix(0.06172839506172839,0,0,0.06172839506172839,15.987654320987653,0)" xlink:href="#A"/><use transform="matrix(0.06172839506172839,0,0,0.06172839506172839,28.333333333333332,0)" xlink:href="#J"/><use transform="matrix(0.06172839506172839,0,0,0.06172839506172839,40.67901234567901,0)" xlink:href="#H"/><use transform="matrix(0.06172839506172839,0,0,0.06172839506172839,51.79012345679013,0)" xlink:href="#S"/><use transform="matrix(0.06172839506172839,0,0,0.06172839506172839,64.13580246913581,0)" xlink:href="#X"/><use transform="matrix(0.06172839506172839,0,0,0.06172839506172839,82.5925925925926,0)" xlink:href="#G"/><use transform="matrix(0.06172839506172839,0,0,0.06172839506172839,94.93827160493828,0)" xlink:href="#E"/></g><path fill="#333" d="M195-6C206 82 75 100 31 46c-4-6-6-13-8-21l49-6c3 16 16 24 34 25 40 0 42-37 40-79-11 22-30 35-61 35-53 0-70-43-70-97 0-56 18-96 73-97 30 0 46 14 59 34l2-30h47zm-90-29c32 0 41-27 41-63 0-35-9-62-40-62-32 0-39 29-40 63 0 36 9 62 39 62" id="Y"/><path fill="#333" d="M25 0v-261h50V0H25" id="Z"/><path fill="#333" d="M110-194c64 0 96 36 96 99 0 64-35 99-97 99-61 0-95-36-95-99 0-62 34-99 96-99zm-1 164c35 0 45-28 45-65 0-40-10-65-43-65-34 0-45 26-45 65 0 36 10 65 43 65" id="aa"/><path fill="#333" d="M135-194c52 0 70 43 70 98 0 56-19 99-73 100-30 1-46-15-58-35L72 0H24l1-261h50v104c11-23 29-37 60-37zM114-30c31 0 40-27 40-66 0-37-7-63-39-63s-41 28-41 65c0 36 8 64 40 64" id="ab"/><path fill="#333" d="M133-34C117-15 103 5 69 4 32 3 11-16 11-54c-1-60 55-63 116-61 1-26-3-47-28-47-18 1-26 9-28 27l-52-2c7-38 36-58 82-57s74 22 75 68l1 82c-1 14 12 18 25 15v27c-30 8-71 5-69-32zm-48 3c29 0 43-24 42-57-32 0-66-3-65 30 0 17 8 27 23 27" id="ac"/><path fill="#333" d="M24 0v-54h51V0H24" id="ad"/><path fill="#333" d="M115-3C79 11 28 4 28-45v-112H4v-33h27l15-45h31v45h36v33H77v99c-1 23 16 31 38 25v30" id="ae"/><path fill="#333" d="M137-138c1-29-70-34-71-4 15 46 118 7 119 86 1 83-164 76-172 9l43-7c4 19 20 25 44 25 33 8 57-30 24-41C81-84 22-81 20-136c-2-80 154-74 161-7" id="af"/><path fill="#333" d="M147 0L96-86 75-71V0H25v-261h50v150l67-79h53l-66 74L201 0h-54" id="ag"/><path fill="#333" d="M135-194c53 0 70 44 70 98 0 56-19 98-73 100-31 1-45-17-59-34 3 33 2 69 2 105H25l-1-265h48c2 10 0 23 3 31 11-24 29-35 60-35zM114-30c33 0 39-31 40-66 0-38-9-64-40-64-56 0-55 130 0 130" id="ah"/><path fill="#333" d="M135-150c-39-12-60 13-60 57V0H25l-1-190h47c2 13-1 29 3 40 6-28 27-53 61-41v41" id="ai"/><path fill="#333" d="M190-63c-7 42-38 67-86 67-59 0-84-38-90-98-12-110 154-137 174-36l-49 2c-2-19-15-32-35-32-30 0-35 28-38 64-6 74 65 87 74 30" id="aj"/><path fill="#333" d="M185-48c-13 30-37 53-82 52C43 2 14-33 14-96s30-98 90-98c62 0 83 45 84 108H66c0 31 8 55 39 56 18 0 30-7 34-22zm-45-69c5-46-57-63-70-21-2 6-4 13-4 21h74" id="ak"/><path fill="#333" d="M25-224v-37h50v37H25zM25 0v-190h50V0H25" id="al"/><path fill="#333" d="M135-194c87-1 58 113 63 194h-50c-7-57 23-157-34-157-59 0-34 97-39 157H25l-1-190h47c2 12-1 28 3 38 12-26 28-41 61-42" id="am"/><g id="j"><use transform="matrix(0.04938271604938272,0,0,0.04938271604938272,0,0)" xlink:href="#Y"/><use transform="matrix(0.04938271604938272,0,0,0.04938271604938272,10.814814814814815,0)" xlink:href="#Z"/><use transform="matrix(0.04938271604938272,0,0,0.04938271604938272,15.753086419753087,0)" xlink:href="#aa"/><use transform="matrix(0.04938271604938272,0,0,0.04938271604938272,26.567901234567902,0)" xlink:href="#ab"/><use transform="matrix(0.04938271604938272,0,0,0.04938271604938272,37.382716049382715,0)" xlink:href="#ac"/><use transform="matrix(0.04938271604938272,0,0,0.04938271604938272,47.25925925925926,0)" xlink:href="#Z"/><use transform="matrix(0.04938271604938272,0,0,0.04938271604938272,52.19753086419754,0)" xlink:href="#ad"/><use transform="matrix(0.04938271604938272,0,0,0.04938271604938272,57.135802469135804,0)" xlink:href="#ae"/><use transform="matrix(0.04938271604938272,0,0,0.04938271604938272,63.01234567901235,0)" xlink:href="#ac"/><use transform="matrix(0.04938271604938272,0,0,0.04938271604938272,72.88888888888889,0)" xlink:href="#af"/><use transform="matrix(0.04938271604938272,0,0,0.04938271604938272,82.76543209876543,0)" xlink:href="#ag"/><use transform="matrix(0.04938271604938272,0,0,0.04938271604938272,92.64197530864197,0)" xlink:href="#ad"/><use transform="matrix(0.04938271604938272,0,0,0.04938271604938272,97.58024691358025,0)" xlink:href="#ah"/><use transform="matrix(0.04938271604938272,0,0,0.04938271604938272,108.39506172839508,0)" xlink:href="#ai"/><use transform="matrix(0.04938271604938272,0,0,0.04938271604938272,115.30864197530865,0)" xlink:href="#aa"/><use transform="matrix(0.04938271604938272,0,0,0.04938271604938272,126.12345679012344,0)" xlink:href="#aj"/><use transform="matrix(0.04938271604938272,0,0,0.04938271604938272,136,0)" xlink:href="#ak"/><use transform="matrix(0.04938271604938272,0,0,0.04938271604938272,145.87654320987656,0)" xlink:href="#af"/><use transform="matrix(0.04938271604938272,0,0,0.04938271604938272,155.75308641975312,0)" xlink:href="#af"/><use transform="matrix(0.04938271604938272,0,0,0.04938271604938272,165.62962962962968,0)" xlink:href="#al"/><use transform="matrix(0.04938271604938272,0,0,0.04938271604938272,170.56790123456796,0)" xlink:href="#am"/><use transform="matrix(0.04938271604938272,0,0,0.04938271604938272,181.38271604938276,0)" xlink:href="#Y"/></g><path fill="#3a414a" d="M233-177c-1 41-23 64-60 70L243 0h-38l-65-103H63V0H30v-248c88 3 205-21 203 71zM63-129c60-2 137 13 137-47 0-61-80-42-137-45v92" id="an"/><g id="k"><use transform="matrix(0.06172839506172839,0,0,0.06172839506172839,0,0)" xlink:href="#an"/><use transform="matrix(0.06172839506172839,0,0,0.06172839506172839,15.987654320987653,0)" xlink:href="#G"/><use transform="matrix(0.06172839506172839,0,0,0.06172839506172839,28.333333333333332,0)" xlink:href="#H"/><use transform="matrix(0.06172839506172839,0,0,0.06172839506172839,39.44444444444444,0)" xlink:href="#S"/><use transform="matrix(0.06172839506172839,0,0,0.06172839506172839,51.79012345679012,0)" xlink:href="#z"/><use transform="matrix(0.06172839506172839,0,0,0.06172839506172839,56.666666666666664,0)" xlink:href="#Q"/><use transform="matrix(0.06172839506172839,0,0,0.06172839506172839,62.839506172839506,0)" xlink:href="#H"/></g><path fill="#333" d="M85 4C-2 5 27-109 22-190h50c7 57-23 150 33 157 60-5 35-97 40-157h50l1 190h-47c-2-12 1-28-3-38-12 25-28 42-61 42" id="ao"/><g id="l"><use transform="matrix(0.04938271604938272,0,0,0.04938271604938272,0,0)" xlink:href="#ao"/><use transform="matrix(0.04938271604938272,0,0,0.04938271604938272,10.814814814814815,0)" xlink:href="#af"/><use transform="matrix(0.04938271604938272,0,0,0.04938271604938272,20.69135802469136,0)" xlink:href="#ak"/><use transform="matrix(0.04938271604938272,0,0,0.04938271604938272,30.567901234567906,0)" xlink:href="#ai"/><use transform="matrix(0.04938271604938272,0,0,0.04938271604938272,36.49382716049383,0)" xlink:href="#ad"/><use transform="matrix(0.04938271604938272,0,0,0.04938271604938272,41.4320987654321,0)" xlink:href="#ae"/><use transform="matrix(0.04938271604938272,0,0,0.04938271604938272,47.308641975308646,0)" xlink:href="#ac"/><use transform="matrix(0.04938271604938272,0,0,0.04938271604938272,57.18518518518519,0)" xlink:href="#af"/><use transform="matrix(0.04938271604938272,0,0,0.04938271604938272,67.06172839506173,0)" xlink:href="#ag"/><use transform="matrix(0.04938271604938272,0,0,0.04938271604938272,76.93827160493828,0)" xlink:href="#ad"/><use transform="matrix(0.04938271604938272,0,0,0.04938271604938272,81.87654320987656,0)" xlink:href="#ai"/><use transform="matrix(0.04938271604938272,0,0,0.04938271604938272,88.79012345679014,0)" xlink:href="#ak"/><use transform="matrix(0.04938271604938272,0,0,0.04938271604938272,98.66666666666669,0)" xlink:href="#af"/><use transform="matrix(0.04938271604938272,0,0,0.04938271604938272,108.54320987654322,0)" xlink:href="#ao"/><use transform="matrix(0.04938271604938272,0,0,0.04938271604938272,119.35802469135804,0)" xlink:href="#Z"/><use transform="matrix(0.04938271604938272,0,0,0.04938271604938272,124.2962962962963,0)" xlink:href="#ae"/><use transform="matrix(0.04938271604938272,0,0,0.04938271604938272,130.17283950617283,0)" xlink:href="#af"/></g><path fill="#3a414a" d="M30 0v-248h33v221h125V0H30" id="ap"/><g id="m"><use transform="matrix(0.06172839506172839,0,0,0.06172839506172839,0,0)" xlink:href="#ap"/><use transform="matrix(0.06172839506172839,0,0,0.06172839506172839,12.345679012345679,0)" xlink:href="#A"/><use transform="matrix(0.06172839506172839,0,0,0.06172839506172839,24.691358024691358,0)" xlink:href="#F"/><use transform="matrix(0.06172839506172839,0,0,0.06172839506172839,35.80246913580247,0)" xlink:href="#C"/><use transform="matrix(0.06172839506172839,0,0,0.06172839506172839,48.148148148148145,0)" xlink:href="#z"/></g><g id="n"><use transform="matrix(0.06172839506172839,0,0,0.06172839506172839,0,0)" xlink:href="#U"/><use transform="matrix(0.06172839506172839,0,0,0.06172839506172839,11.049382716049381,0)" xlink:href="#C"/><use transform="matrix(0.06172839506172839,0,0,0.06172839506172839,23.39506172839506,0)" xlink:href="#H"/><use transform="matrix(0.06172839506172839,0,0,0.06172839506172839,34.50617283950617,0)" xlink:href="#V"/></g><path fill="#3a414a" d="M30-248c118-7 216 8 213 122C240-48 200 0 122 0H30v-248zM63-27c89 8 146-16 146-99s-60-101-146-95v194" id="aq"/><path fill="#3a414a" d="M206 0h-36l-40-164L89 0H53L-1-190h32L70-26l43-164h34l41 164 42-164h31" id="ar"/><g id="o"><use transform="matrix(0.06172839506172839,0,0,0.06172839506172839,0,0)" xlink:href="#aq"/><use transform="matrix(0.06172839506172839,0,0,0.06172839506172839,15.987654320987653,0)" xlink:href="#A"/><use transform="matrix(0.06172839506172839,0,0,0.06172839506172839,28.333333333333332,0)" xlink:href="#ar"/><use transform="matrix(0.06172839506172839,0,0,0.06172839506172839,44.32098765432099,0)" xlink:href="#J"/><use transform="matrix(0.06172839506172839,0,0,0.06172839506172839,56.666666666666664,0)" xlink:href="#z"/><use transform="matrix(0.06172839506172839,0,0,0.06172839506172839,61.54320987654321,0)" xlink:href="#A"/><use transform="matrix(0.06172839506172839,0,0,0.06172839506172839,73.88888888888889,0)" xlink:href="#C"/><use transform="matrix(0.06172839506172839,0,0,0.06172839506172839,86.23456790123457,0)" xlink:href="#P"/><use transform="matrix(0.06172839506172839,0,0,0.06172839506172839,98.58024691358025,0)" xlink:href="#I"/><use transform="matrix(0.06172839506172839,0,0,0.06172839506172839,103.4567901234568,0)" xlink:href="#J"/><use transform="matrix(0.06172839506172839,0,0,0.06172839506172839,115.80246913580248,0)" xlink:href="#K"/></g><g id="p"><use transform="matrix(0.06172839506172839,0,0,0.06172839506172839,0,0)" xlink:href="#D"/><use transform="matrix(0.06172839506172839,0,0,0.06172839506172839,14.814814814814813,0)" xlink:href="#E"/><use transform="matrix(0.06172839506172839,0,0,0.06172839506172839,22.160493827160494,0)" xlink:href="#A"/><use transform="matrix(0.06172839506172839,0,0,0.06172839506172839,34.50617283950617,0)" xlink:href="#F"/><use transform="matrix(0.06172839506172839,0,0,0.06172839506172839,45.61728395061728,0)" xlink:href="#G"/><use transform="matrix(0.06172839506172839,0,0,0.06172839506172839,57.962962962962955,0)" xlink:href="#H"/><use transform="matrix(0.06172839506172839,0,0,0.06172839506172839,69.07407407407406,0)" xlink:href="#H"/><use transform="matrix(0.06172839506172839,0,0,0.06172839506172839,80.18518518518518,0)" xlink:href="#I"/><use transform="matrix(0.06172839506172839,0,0,0.06172839506172839,85.06172839506172,0)" xlink:href="#J"/><use transform="matrix(0.06172839506172839,0,0,0.06172839506172839,97.4074074074074,0)" xlink:href="#K"/></g><g id="q"><use transform="matrix(0.04938271604938272,0,0,0.04938271604938272,0,0)" xlink:href="#Y"/><use transform="matrix(0.04938271604938272,0,0,0.04938271604938272,10.814814814814815,0)" xlink:href="#Z"/><use transform="matrix(0.04938271604938272,0,0,0.04938271604938272,15.753086419753087,0)" xlink:href="#aa"/><use transform="matrix(0.04938271604938272,0,0,0.04938271604938272,26.567901234567902,0)" xlink:href="#ab"/><use transform="matrix(0.04938271604938272,0,0,0.04938271604938272,37.382716049382715,0)" xlink:href="#ac"/><use transform="matrix(0.04938271604938272,0,0,0.04938271604938272,47.25925925925926,0)" xlink:href="#ad"/><use transform="matrix(0.04938271604938272,0,0,0.04938271604938272,52.19753086419754,0)" xlink:href="#ae"/><use transform="matrix(0.04938271604938272,0,0,0.04938271604938272,58.074074074074076,0)" xlink:href="#ac"/><use transform="matrix(0.04938271604938272,0,0,0.04938271604938272,67.95061728395062,0)" xlink:href="#af"/><use transform="matrix(0.04938271604938272,0,0,0.04938271604938272,77.82716049382717,0)" xlink:href="#ag"/><use transform="matrix(0.04938271604938272,0,0,0.04938271604938272,87.70370370370371,0)" xlink:href="#ad"/><use transform="matrix(0.04938271604938272,0,0,0.04938271604938272,92.64197530864197,0)" xlink:href="#ai"/><use transform="matrix(0.04938271604938272,0,0,0.04938271604938272,99.55555555555556,0)" xlink:href="#ak"/><use transform="matrix(0.04938271604938272,0,0,0.04938271604938272,109.4320987654321,0)" xlink:href="#af"/><use transform="matrix(0.04938271604938272,0,0,0.04938271604938272,119.30864197530865,0)" xlink:href="#ao"/><use transform="matrix(0.04938271604938272,0,0,0.04938271604938272,130.12345679012347,0)" xlink:href="#Z"/><use transform="matrix(0.04938271604938272,0,0,0.04938271604938272,135.06172839506175,0)" xlink:href="#ae"/><use transform="matrix(0.04938271604938272,0,0,0.04938271604938272,140.93827160493828,0)" xlink:href="#af"/></g><g id="r"><use transform="matrix(0.04938271604938272,0,0,0.04938271604938272,0,0)" xlink:href="#Z"/><use transform="matrix(0.04938271604938272,0,0,0.04938271604938272,4.938271604938272,0)" xlink:href="#aa"/><use transform="matrix(0.04938271604938272,0,0,0.04938271604938272,15.753086419753087,0)" xlink:href="#aj"/><use transform="matrix(0.04938271604938272,0,0,0.04938271604938272,25.629629629629633,0)" xlink:href="#ac"/><use transform="matrix(0.04938271604938272,0,0,0.04938271604938272,35.50617283950618,0)" xlink:href="#Z"/><use transform="matrix(0.04938271604938272,0,0,0.04938271604938272,40.44444444444445,0)" xlink:href="#ad"/><use transform="matrix(0.04938271604938272,0,0,0.04938271604938272,45.38271604938272,0)" xlink:href="#ae"/><use transform="matrix(0.04938271604938272,0,0,0.04938271604938272,51.25925925925927,0)" xlink:href="#ac"/><use transform="matrix(0.04938271604938272,0,0,0.04938271604938272,61.13580246913581,0)" xlink:href="#af"/><use transform="matrix(0.04938271604938272,0,0,0.04938271604938272,71.01234567901236,0)" xlink:href="#ag"/><use transform="matrix(0.04938271604938272,0,0,0.04938271604938272,80.8888888888889,0)" xlink:href="#ad"/><use transform="matrix(0.04938271604938272,0,0,0.04938271604938272,85.82716049382717,0)" xlink:href="#ah"/><use transform="matrix(0.04938271604938272,0,0,0.04938271604938272,96.64197530864197,0)" xlink:href="#ai"/><use transform="matrix(0.04938271604938272,0,0,0.04938271604938272,103.55555555555557,0)" xlink:href="#aa"/><use transform="matrix(0.04938271604938272,0,0,0.04938271604938272,114.37037037037035,0)" xlink:href="#aj"/><use transform="matrix(0.04938271604938272,0,0,0.04938271604938272,124.2469135802469,0)" xlink:href="#ak"/><use transform="matrix(0.04938271604938272,0,0,0.04938271604938272,134.12345679012344,0)" xlink:href="#af"/><use transform="matrix(0.04938271604938272,0,0,0.04938271604938272,144,0)" xlink:href="#af"/><use transform="matrix(0.04938271604938272,0,0,0.04938271604938272,153.87654320987656,0)" xlink:href="#al"/><use transform="matrix(0.04938271604938272,0,0,0.04938271604938272,158.81481481481484,0)" xlink:href="#am"/><use transform="matrix(0.04938271604938272,0,0,0.04938271604938272,169.62962962962965,0)" xlink:href="#Y"/></g><path fill="#333" d="M88-194c31-1 46 15 58 34l-1-101h50l1 261h-48c-2-10 0-23-3-31C134-8 116 4 84 4 32 4 16-41 15-95c0-56 19-97 73-99zm17 164c33 0 40-30 41-66 1-37-9-64-41-64s-38 30-39 65c0 43 13 65 39 65" id="as"/><path fill="#333" d="M231 0h-52l-39-155L100 0H48L-1-190h46L77-45c9-52 24-97 36-145h53l37 145 32-145h46" id="at"/><g id="s"><use transform="matrix(0.04938271604938272,0,0,0.04938271604938272,0,0)" xlink:href="#Z"/><use transform="matrix(0.04938271604938272,0,0,0.04938271604938272,4.938271604938272,0)" xlink:href="#aa"/><use transform="matrix(0.04938271604938272,0,0,0.04938271604938272,15.753086419753087,0)" xlink:href="#aj"/><use transform="matrix(0.04938271604938272,0,0,0.04938271604938272,25.629629629629633,0)" xlink:href="#ac"/><use transform="matrix(0.04938271604938272,0,0,0.04938271604938272,35.50617283950618,0)" xlink:href="#Z"/><use transform="matrix(0.04938271604938272,0,0,0.04938271604938272,40.44444444444445,0)" xlink:href="#ad"/><use transform="matrix(0.04938271604938272,0,0,0.04938271604938272,45.38271604938272,0)" xlink:href="#ae"/><use transform="matrix(0.04938271604938272,0,0,0.04938271604938272,51.25925925925927,0)" xlink:href="#ac"/><use transform="matrix(0.04938271604938272,0,0,0.04938271604938272,61.13580246913581,0)" xlink:href="#af"/><use transform="matrix(0.04938271604938272,0,0,0.04938271604938272,71.01234567901236,0)" xlink:href="#ag"/><use transform="matrix(0.04938271604938272,0,0,0.04938271604938272,80.8888888888889,0)" xlink:href="#ad"/><use transform="matrix(0.04938271604938272,0,0,0.04938271604938272,85.82716049382717,0)" xlink:href="#as"/><use transform="matrix(0.04938271604938272,0,0,0.04938271604938272,96.64197530864197,0)" xlink:href="#aa"/><use transform="matrix(0.04938271604938272,0,0,0.04938271604938272,107.45679012345677,0)" xlink:href="#at"/><use transform="matrix(0.04938271604938272,0,0,0.04938271604938272,121.28395061728394,0)" xlink:href="#am"/><use transform="matrix(0.04938271604938272,0,0,0.04938271604938272,132.09876543209876,0)" xlink:href="#Z"/><use transform="matrix(0.04938271604938272,0,0,0.04938271604938272,137.03703703703704,0)" xlink:href="#aa"/><use transform="matrix(0.04938271604938272,0,0,0.04938271604938272,147.85185185185185,0)" xlink:href="#ac"/><use transform="matrix(0.04938271604938272,0,0,0.04938271604938272,157.7283950617284,0)" xlink:href="#as"/><use transform="matrix(0.04938271604938272,0,0,0.04938271604938272,168.54320987654322,0)" xlink:href="#al"/><use transform="matrix(0.04938271604938272,0,0,0.04938271604938272,173.4814814814815,0)" xlink:href="#am"/><use transform="matrix(0.04938271604938272,0,0,0.04938271604938272,184.2962962962963,0)" xlink:href="#Y"/></g><path fill="#3a414a" d="M115-194c55 1 70 41 70 98S169 2 115 4C84 4 66-9 55-30l1 105H24l-1-265h31l2 30c10-21 28-34 59-34zm-8 174c40 0 45-34 45-75s-6-73-45-74c-42 0-51 32-51 76 0 43 10 73 51 73" id="au"/><g id="t"><use transform="matrix(0.06172839506172839,0,0,0.06172839506172839,0,0)" xlink:href="#T"/><use transform="matrix(0.06172839506172839,0,0,0.06172839506172839,15.987654320987653,0)" xlink:href="#au"/><use transform="matrix(0.06172839506172839,0,0,0.06172839506172839,28.333333333333332,0)" xlink:href="#z"/><use transform="matrix(0.06172839506172839,0,0,0.06172839506172839,33.20987654320987,0)" xlink:href="#A"/><use transform="matrix(0.06172839506172839,0,0,0.06172839506172839,45.55555555555555,0)" xlink:href="#C"/><use transform="matrix(0.06172839506172839,0,0,0.06172839506172839,57.90123456790123,0)" xlink:href="#P"/><use transform="matrix(0.06172839506172839,0,0,0.06172839506172839,70.24691358024691,0)" xlink:href="#I"/><use transform="matrix(0.06172839506172839,0,0,0.06172839506172839,75.12345679012346,0)" xlink:href="#J"/><use transform="matrix(0.06172839506172839,0,0,0.06172839506172839,87.46913580246914,0)" xlink:href="#K"/></g><g id="u"><use transform="matrix(0.04938271604938272,0,0,0.04938271604938272,0,0)" xlink:href="#Z"/><use transform="matrix(0.04938271604938272,0,0,0.04938271604938272,4.938271604938272,0)" xlink:href="#aa"/><use transform="matrix(0.04938271604938272,0,0,0.04938271604938272,15.753086419753087,0)" xlink:href="#aj"/><use transform="matrix(0.04938271604938272,0,0,0.04938271604938272,25.629629629629633,0)" xlink:href="#ac"/><use transform="matrix(0.04938271604938272,0,0,0.04938271604938272,35.50617283950618,0)" xlink:href="#Z"/><use transform="matrix(0.04938271604938272,0,0,0.04938271604938272,40.44444444444445,0)" xlink:href="#ad"/><use transform="matrix(0.04938271604938272,0,0,0.04938271604938272,45.38271604938272,0)" xlink:href="#ae"/><use transform="matrix(0.04938271604938272,0,0,0.04938271604938272,51.25925925925927,0)" xlink:href="#ac"/><use transform="matrix(0.04938271604938272,0,0,0.04938271604938272,61.13580246913581,0)" xlink:href="#af"/><use transform="matrix(0.04938271604938272,0,0,0.04938271604938272,71.01234567901236,0)" xlink:href="#ag"/><use transform="matrix(0.04938271604938272,0,0,0.04938271604938272,80.8888888888889,0)" xlink:href="#ad"/><use transform="matrix(0.04938271604938272,0,0,0.04938271604938272,85.82716049382717,0)" xlink:href="#ao"/><use transform="matrix(0.04938271604938272,0,0,0.04938271604938272,96.64197530864197,0)" xlink:href="#ah"/><use transform="matrix(0.04938271604938272,0,0,0.04938271604938272,107.45679012345677,0)" xlink:href="#Z"/><use transform="matrix(0.04938271604938272,0,0,0.04938271604938272,112.39506172839508,0)" xlink:href="#aa"/><use transform="matrix(0.04938271604938272,0,0,0.04938271604938272,123.20987654320986,0)" xlink:href="#ac"/><use transform="matrix(0.04938271604938272,0,0,0.04938271604938272,133.08641975308643,0)" xlink:href="#as"/><use transform="matrix(0.04938271604938272,0,0,0.04938271604938272,143.90123456790124,0)" xlink:href="#al"/><use transform="matrix(0.04938271604938272,0,0,0.04938271604938272,148.83950617283952,0)" xlink:href="#am"/><use transform="matrix(0.04938271604938272,0,0,0.04938271604938272,159.65432098765433,0)" xlink:href="#Y"/></g><path fill="#333" d="M121-226c-27-7-43 5-38 36h38v33H83V0H34v-157H6v-33h28c-9-59 32-81 87-68v32" id="av"/><g id="v"><use transform="matrix(0.04938271604938272,0,0,0.04938271604938272,0,0)" xlink:href="#av"/><use transform="matrix(0.04938271604938272,0,0,0.04938271604938272,5.8765432098765435,0)" xlink:href="#ak"/><use transform="matrix(0.04938271604938272,0,0,0.04938271604938272,15.753086419753087,0)" xlink:href="#as"/><use transform="matrix(0.04938271604938272,0,0,0.04938271604938272,26.567901234567902,0)" xlink:href="#ak"/><use transform="matrix(0.04938271604938272,0,0,0.04938271604938272,36.44444444444445,0)" xlink:href="#ai"/><use transform="matrix(0.04938271604938272,0,0,0.04938271604938272,43.35802469135803,0)" xlink:href="#ac"/><use transform="matrix(0.04938271604938272,0,0,0.04938271604938272,53.23456790123457,0)" xlink:href="#ae"/><use transform="matrix(0.04938271604938272,0,0,0.04938271604938272,59.111111111111114,0)" xlink:href="#al"/><use transform="matrix(0.04938271604938272,0,0,0.04938271604938272,64.0493827160494,0)" xlink:href="#aa"/><use transform="matrix(0.04938271604938272,0,0,0.04938271604938272,74.8641975308642,0)" xlink:href="#am"/></g><g id="w"><use transform="matrix(0.04938271604938272,0,0,0.04938271604938272,0,0)" xlink:href="#aa"/><use transform="matrix(0.04938271604938272,0,0,0.04938271604938272,10.814814814814815,0)" xlink:href="#av"/></g><path fill="#333" d="M84 4C32 4 15-41 15-95c0-55 18-99 73-99 29 0 47 12 58 34l2-30h48l-1 265h-49V-32C136-9 114 4 84 4zm21-34c32 0 41-29 41-66 0-36-9-64-40-64-33 0-39 30-40 65 0 43 13 65 39 65" id="aw"/><g id="x"><use transform="matrix(0.04938271604938272,0,0,0.04938271604938272,0,0)" xlink:href="#aw"/><use transform="matrix(0.04938271604938272,0,0,0.04938271604938272,10.814814814814815,0)" xlink:href="#ao"/><use transform="matrix(0.04938271604938272,0,0,0.04938271604938272,21.62962962962963,0)" xlink:href="#ak"/><use transform="matrix(0.04938271604938272,0,0,0.04938271604938272,31.506172839506174,0)" xlink:href="#ao"/><use transform="matrix(0.04938271604938272,0,0,0.04938271604938272,42.32098765432099,0)" xlink:href="#ak"/></g></defs></g></svg>